<?xml version="1.0" encoding="UTF-8" standalone="no"?>
<!-- Created with Inkscape (http://www.inkscape.org/) -->

<svg
   width="372mm"
   height="167mm"
   viewBox="0 0 372 166.99923"
   version="1.1"
   id="svg5"
   inkscape:version="1.4.3 (0d15f75042, 2025-12-25)"
   sodipodi:docname="chimera_schematic.svg"
   xml:space="preserve"
   xmlns:inkscape="http://www.inkscape.org/namespaces/inkscape"
   xmlns:sodipodi="http://sodipodi.sourceforge.net/DTD/sodipodi-0.dtd"
   xmlns="http://www.w3.org/2000/svg"
   xmlns:svg="http://www.w3.org/2000/svg"><sodipodi:namedview
     id="namedview7"
     pagecolor="#ffffff"
     bordercolor="#666666"
     borderopacity="1.0"
     inkscape:showpageshadow="2"
     inkscape:pageopacity="0.0"
     inkscape:pagecheckerboard="0"
     inkscape:deskcolor="#d1d1d1"
     inkscape:document-units="mm"
     showgrid="true"
     inkscape:zoom="1.7696567"
     inkscape:cx="549.82417"
     inkscape:cy="359.67429"
     inkscape:window-width="1280"
     inkscape:window-height="720"
     inkscape:window-x="0"
     inkscape:window-y="0"
     inkscape:window-maximized="1"
     showguides="true"
     inkscape:current-layer="layer1"><inkscape:grid
       type="xygrid"
       id="grid132"
       originx="0"
       originy="0"
       spacingy="1"
       spacingx="1"
       units="mm"
       visible="true" /><sodipodi:guide
       position="303.10222,232.09518"
       orientation="0,-1"
       id="guide7"
       inkscape:locked="false" /><sodipodi:guide
       position="284.45383,-1.9723536"
       orientation="0,1"
       id="guide14"
       inkscape:locked="false"
       inkscape:label=""
       inkscape:color="rgb(0,134,229)" /></sodipodi:namedview><defs
     id="defs2"><marker
       style="overflow:visible"
       id="marker13"
       refX="0"
       refY="0"
       orient="auto-start-reverse"
       inkscape:stockid="Dart arrow"
       markerWidth="1"
       markerHeight="1"
       viewBox="0 0 1 1"
       inkscape:isstock="true"
       inkscape:collect="always"
       preserveAspectRatio="xMidYMid"><path
         style="fill:context-stroke;fill-rule:evenodd;stroke:none"
         d="M 0,0 5,-5 -12.5,0 5,5 Z"
         transform="scale(-0.5)"
         id="path13" /></marker><marker
       style="overflow:visible"
       id="DartArrow"
       refX="0"
       refY="0"
       orient="auto-start-reverse"
       inkscape:stockid="Dart arrow"
       markerWidth="1"
       markerHeight="1"
       viewBox="0 0 1 1"
       inkscape:isstock="true"
       inkscape:collect="always"
       preserveAspectRatio="xMidYMid"><path
         style="fill:context-stroke;fill-rule:evenodd;stroke:none"
         d="M 0,0 5,-5 -12.5,0 5,5 Z"
         transform="scale(-0.5)"
         id="path6" /></marker><inkscape:path-effect
       effect="skeletal"
       id="path-effect115"
       is_visible="true"
       lpeversion="1"
       pattern="M 0,0 H 1"
       copytype="single_stretched"
       prop_scale="1"
       scale_y_rel="false"
       spacing="0"
       normal_offset="0"
       tang_offset="0"
       prop_units="false"
       vertical_pattern="false"
       hide_knot="false"
       fuse_tolerance="0" /><inkscape:path-effect
       effect="skeletal"
       id="path-effect59"
       is_visible="true"
       lpeversion="1"
       pattern="M 0,0 H 1"
       copytype="single_stretched"
       prop_scale="1"
       scale_y_rel="false"
       spacing="0"
       normal_offset="0"
       tang_offset="0"
       prop_units="false"
       vertical_pattern="false"
       hide_knot="false"
       fuse_tolerance="0" /><inkscape:path-effect
       effect="skeletal"
       id="path-effect50"
       is_visible="true"
       lpeversion="1"
       pattern="m 479.21606,288.37827 v 0 m -1.4626,0 h 1.4626 v 6.09219 h -3.1041 l 2.88475,4.99652 3.06493,-5.30862 h -2.84558 v 0.3121"
       copytype="repeated_stretched"
       prop_scale="1"
       scale_y_rel="false"
       spacing="0"
       normal_offset="0"
       tang_offset="0"
       prop_units="false"
       vertical_pattern="false"
       hide_knot="false"
       fuse_tolerance="0" /><inkscape:path-effect
       effect="skeletal"
       id="path-effect42"
       is_visible="true"
       lpeversion="1"
       pattern="M 0,0 H 1"
       copytype="single_stretched"
       prop_scale="1"
       scale_y_rel="false"
       spacing="0"
       normal_offset="0"
       tang_offset="0"
       prop_units="false"
       vertical_pattern="false"
       hide_knot="false"
       fuse_tolerance="0" /><inkscape:path-effect
       effect="skeletal"
       id="path-effect41"
       is_visible="true"
       lpeversion="1"
       pattern="M 0.76332294,-3.8858864e-4 -0.38100001,0.66106976 v -1.3229167 z"
       copytype="repeated_stretched"
       prop_scale="1"
       scale_y_rel="false"
       spacing="0"
       normal_offset="0"
       tang_offset="0"
       prop_units="true"
       vertical_pattern="true"
       hide_knot="false"
       fuse_tolerance="0" /><inkscape:path-effect
       effect="skeletal"
       id="path-effect39"
       is_visible="true"
       lpeversion="1"
       pattern="M 0.76332294,-3.8858864e-4 -0.38100001,0.66106976 v -1.3229167 z"
       copytype="repeated_stretched"
       prop_scale="1"
       scale_y_rel="false"
       spacing="0"
       normal_offset="0"
       tang_offset="0"
       prop_units="false"
       vertical_pattern="false"
       hide_knot="false"
       fuse_tolerance="0" /><marker
       style="overflow:visible"
       id="Triangle"
       refX="0"
       refY="0"
       orient="auto-start-reverse"
       inkscape:stockid="Triangle arrow"
       markerWidth="1"
       markerHeight="1"
       viewBox="0 0 1 1"
       inkscape:isstock="true"
       inkscape:collect="always"
       preserveAspectRatio="xMidYMid"><path
         transform="scale(0.5)"
         style="fill:context-stroke;fill-rule:evenodd;stroke:context-stroke;stroke-width:1pt"
         d="M 5.77,0 -2.88,5 V -5 Z"
         id="path135" /></marker><inkscape:path-effect
       effect="mirror_symmetry"
       start_point="125.14794,52.916667"
       end_point="125.14794,66.851351"
       center_point="125.14794,59.884009"
       id="path-effect1"
       is_visible="true"
       lpeversion="1.2"
       lpesatellites=""
       mode="free"
       discard_orig_path="false"
       fuse_paths="false"
       oposite_fuse="false"
       split_items="false"
       split_open="false"
       link_styles="false" /><marker
       markerWidth="0.99999899"
       markerHeight="29.039053"
       refX="3.0776885"
       refY="16.295061"
       orient="auto"
       id="marker41"
       viewBox="0 0 0.99999899 29.039054"
       preserveAspectRatio="xMidYMid"><path
         style="fill:none;stroke:#000000;stroke-width:0.999999px;stroke-linecap:butt;stroke-linejoin:miter;stroke-opacity:1;marker-end:url(#Triangle)"
         d="M 3.0776885,32.590124 V 3.5510701"
         id="path39"
         sodipodi:nodetypes="cc" /></marker></defs><g
     inkscape:label="Layer 1"
     inkscape:groupmode="layer"
     id="layer1"><rect
       style="fill:#cb776c;fill-opacity:0.6;stroke:#000000;stroke-width:0.5;stroke-dasharray:none;stroke-opacity:1"
       id="rect115"
       width="42.333332"
       height="26.163439"
       x="278.84409"
       y="117.08989" /><circle
       style="fill:#ff0000;fill-opacity:0.6;stroke:none;stroke-width:1.10874;stroke-dasharray:none;stroke-dashoffset:0;stroke-opacity:1"
       id="circle115"
       cx="307.94824"
       cy="130.31906"
       r="7.3338232" /><rect
       style="opacity:1;fill:#666666;fill-opacity:0.6;stroke-width:0.3"
       id="rect236"
       width="169.33333"
       height="74.083336"
       x="0.083876133"
       y="56.53978" /><rect
       style="fill:#cb776c;fill-opacity:0.6;stroke:#000000;stroke-width:0.5;stroke-dasharray:none;stroke-opacity:1"
       id="rect952"
       width="42.333332"
       height="26.163439"
       x="90.042221"
       y="80.352272" /><rect
       style="fill:none;stroke:#000000;stroke-width:0.4;stroke-dasharray:0.8, 1.6;stroke-dashoffset:0;stroke-opacity:1"
       id="rect954"
       width="42.333332"
       height="26.163439"
       x="53.000538"
       y="80.352272" /><circle
       style="fill:#ff0000;fill-opacity:0.6;stroke:none;stroke-width:1.10874;stroke-dasharray:none;stroke-dashoffset:0;stroke-opacity:1"
       id="circle2023"
       cx="119.14637"
       cy="93.581451"
       r="7.3338232" /><circle
       style="fill:#ffff00;fill-opacity:0.6;stroke:none;stroke-width:0.554895;stroke-dasharray:none;stroke-dashoffset:0;stroke-opacity:1"
       id="path1977"
       cx="119.14637"
       cy="93.581451"
       r="3.6704025" /><text
       xml:space="preserve"
       style="font-size:2.82223px;line-height:1.25;font-family:'CMU Sans Serif';-inkscape-font-specification:'CMU Sans Serif, Normal';stroke-width:0.264583"
       x="6.6582251"
       y="66.212189"
       id="text1974"><tspan
         sodipodi:role="line"
         id="tspan1972"
         style="stroke-width:0.264583"
         x="6.6582251"
         y="66.212189">$\Omega_f (t^{n+1})$</tspan></text><text
       xml:space="preserve"
       style="font-size:2.82223px;line-height:1.25;font-family:'CMU Sans Serif';-inkscape-font-specification:'CMU Sans Serif, Normal';stroke-width:0.264583"
       x="105.83333"
       y="156.10417"
       id="text2358"><tspan
         sodipodi:role="line"
         id="tspan2356"
         style="stroke-width:0.264583"
         x="105.83333"
         y="156.10417" /></text><text
       xml:space="preserve"
       style="font-size:2.82223px;line-height:1.25;font-family:'CMU Sans Serif';-inkscape-font-specification:'CMU Sans Serif, Normal';stroke-width:0.264583"
       x="73.349731"
       y="121.5068"
       id="text2364"><tspan
         sodipodi:role="line"
         id="tspan2362"
         style="stroke-width:0.264583"
         x="73.349731"
         y="121.5068">$\Gamma(t^n)$</tspan></text><text
       xml:space="preserve"
       style="font-size:2.82223px;line-height:1.25;font-family:'CMU Sans Serif';-inkscape-font-specification:'CMU Sans Serif, Normal';stroke-width:0.264583"
       x="119.24295"
       y="119.82725"
       id="text2368"><tspan
         sodipodi:role="line"
         id="tspan2366"
         style="stroke-width:0.264583"
         x="119.24295"
         y="119.82725">$\Omega_m (t^{n+1})$</tspan></text><text
       xml:space="preserve"
       style="font-size:2.82223px;line-height:1.25;font-family:'CMU Sans Serif';-inkscape-font-specification:'CMU Sans Serif, Normal';stroke-width:0.264583"
       x="179.61417"
       y="96.745583"
       id="text2492"><tspan
         style="stroke-width:0.264583"
         x="179.61417"
         y="96.745583"
         id="tspan5"
         sodipodi:role="line">\huge$\Omega$</tspan></text><text
       xml:space="preserve"
       style="font-size:2.82223px;line-height:1.25;font-family:'CMU Sans Serif';-inkscape-font-specification:'CMU Sans Serif, Normal';stroke-width:0.264583"
       x="137.2316"
       y="51.750916"
       id="text20211"><tspan
         sodipodi:role="line"
         id="tspan20209"
         style="stroke-width:0.264583"
         x="137.2316"
         y="51.750916">$\Gamma(t^{n+1})$</tspan></text><path
       style="fill:none;stroke:#000000;stroke-width:0.05;stroke-linecap:butt;stroke-linejoin:miter;stroke-dasharray:0.15, 0.15;stroke-dashoffset:0;stroke-opacity:1"
       d="m 52.875537,70.52036 0.004,9.681912"
       id="path1"
       sodipodi:nodetypes="cc" /><path
       style="fill:none;stroke:#000000;stroke-width:0.4;stroke-linecap:butt;stroke-linejoin:miter;stroke-dasharray:none;stroke-opacity:1;marker-start:url(#Triangle);marker-end:url(#Triangle)"
       d="M 88.433976,71.900527 H 54.266706"
       id="path3"
       sodipodi:nodetypes="cc" /><text
       xml:space="preserve"
       style="font-size:2.82223px;line-height:1.25;font-family:'CMU Sans Serif';-inkscape-font-specification:'CMU Sans Serif, Normal';stroke-width:0.264583"
       x="65.234024"
       y="69.677727"
       id="text3"><tspan
         sodipodi:role="line"
         id="tspan3"
         style="stroke-width:0.264583"
         x="65.234024"
         y="69.677727">$V\Delta t$</tspan></text><path
       style="fill:none;stroke:#000000;stroke-width:0.05;stroke-linecap:butt;stroke-linejoin:miter;stroke-dasharray:0.15, 0.15;stroke-dashoffset:0;stroke-opacity:1"
       d="m 89.822047,70.52035 -0.001,9.581922"
       id="path4"
       sodipodi:nodetypes="cc" /><path
       style="fill:none;stroke:#000000;stroke-width:0.4;stroke-linecap:butt;stroke-linejoin:miter;stroke-dasharray:none;stroke-opacity:1;marker-end:url(#Triangle)"
       d="M 117.24919,117.86413 C 100.22181,116.35845 101.34901,94.364722 101.34901,94.364722"
       id="path7"
       sodipodi:nodetypes="cc" /><path
       style="fill:none;stroke:#000000;stroke-width:0.4;stroke-linecap:butt;stroke-linejoin:miter;stroke-dasharray:none;stroke-opacity:1;marker-end:url(#Triangle)"
       d="m 71.635298,119.56957 c -8.633525,-1.7489 -9.319553,-6.53648 -8.347955,-11.17749"
       id="path8"
       sodipodi:nodetypes="cc" /><path
       style="fill:none;stroke:#000000;stroke-width:0.4;stroke-linecap:butt;stroke-linejoin:miter;stroke-dasharray:none;stroke-opacity:1;marker-end:url(#Triangle)"
       d="m 135.37436,52.448777 c -7.50552,2.997709 -15.85968,19.67961 -13.75546,25.903743"
       id="path9"
       sodipodi:nodetypes="cc" /><path
       style="font-size:47.2782px;line-height:1.25;font-family:FreeSerif;-inkscape-font-specification:'FreeSerif, Normal';stroke-width:0.844249"
       d="m 171.30034,130.62313 q 2.30727,-0.17051 3.3298,-2.47232 0.99632,-2.30181 0.99632,-9.46301 v -15.08967 q 0,-4.433125 0.47195,-6.393931 0.44572,-1.960803 1.75667,-3.324841 -1.31095,-1.278786 -1.75667,-3.239591 -0.47195,-1.960805 -0.47195,-6.393928 V 69.070917 q 0,-3.751105 -0.26218,-6.052918 -0.26219,-2.387068 -0.86523,-3.580601 -0.60304,-1.278786 -1.31095,-1.705048 -0.73413,-0.426262 -1.88776,-0.511514 v 0.937776 q 1.36339,1.108282 1.88776,3.410095 0.49816,2.301815 0.49816,7.075948 v 14.322398 q 0,5.285647 0.49816,7.50221 0.49816,2.216562 1.96643,3.495347 -1.46827,1.193534 -1.96643,3.410095 -0.49816,2.216562 -0.49816,7.502205 v 14.3224 q 0,4.77413 -0.49816,7.07595 -0.52437,2.30181 -1.88776,3.41009 z"
       id="text9"
       aria-label="{" /><rect
       style="opacity:1;fill:#666666;fill-opacity:0.6;stroke-width:0.3"
       id="rect9"
       width="169.33333"
       height="74.083336"
       x="202.5"
       y="-0.18266337" /><path
       id="rect10"
       style="fill:#ffffff;stroke:#000000;stroke-width:0.5;stroke-dasharray:none"
       d="m 278.8441,25.491089 h 5.29167 5.29166 5.29167 5.29166 5.29167 5.29167 5.29166 5.29167 v 6.54086 6.540859 6.54086 6.54086 h -5.29167 -5.29166 -5.29167 -5.29167 -5.29166 -5.29167 -5.29166 -5.29167 v -6.54086 -6.54086 -6.540859 z"
       sodipodi:nodetypes="ccccccccccccccccccccccccc" /><text
       xml:space="preserve"
       style="font-size:2.82223px;line-height:1.25;font-family:'CMU Sans Serif';-inkscape-font-specification:'CMU Sans Serif, Normal';stroke-width:0.264583"
       x="203.12489"
       y="20.977964"
       id="text20"><tspan
         sodipodi:role="line"
         id="tspan20"
         style="stroke-width:0.264583"
         x="203.12489"
         y="20.977964">\LARGE$\Omega_f (t^{n+1})$</tspan></text><text
       xml:space="preserve"
       style="font-size:2.82223px;line-height:1.25;font-family:'CMU Sans Serif';-inkscape-font-specification:'CMU Sans Serif, Normal';stroke-width:0.264583"
       x="202.43449"
       y="124.23031"
       id="text35"><tspan
         sodipodi:role="line"
         id="tspan35"
         style="stroke-width:0.264583"
         x="202.43449"
         y="124.23031">\LARGE$\Omega_m (t^{n+1})$</tspan></text><text
       xml:space="preserve"
       style="font-size:2.82223px;line-height:1.25;font-family:'CMU Sans Serif';-inkscape-font-specification:'CMU Sans Serif, Normal';stroke-width:0.264583"
       x="294.55002"
       y="98.916718"
       id="text37"><tspan
         style="stroke-width:0.264583"
         x="294.55002"
         y="98.916718"
         id="tspan37"
         sodipodi:role="line">\LARGE$\bigcup$</tspan></text><text
       xml:space="preserve"
       style="font-size:2.82223px;line-height:1.25;font-family:'CMU Sans Serif';-inkscape-font-specification:'CMU Sans Serif, Normal';stroke-width:0.264583"
       x="214.06522"
       y="165.44234"
       id="text106"><tspan
         sodipodi:role="line"
         id="tspan106"
         style="stroke-width:0.264583"
         x="214.06522"
         y="165.44234">{\small$T_m + k_m\partial_{n_m} T_m = T_f + k_f \partial_{n_m} T_f$}</tspan></text><circle
       style="fill:#ffff00;fill-opacity:0.6;stroke:none;stroke-width:0.554895;stroke-dasharray:none;stroke-dashoffset:0;stroke-opacity:1"
       id="circle116"
       cx="307.94824"
       cy="130.31906"
       r="3.6704025" /><g
       id="g33"
       transform="translate(0,9.2696889)"><path
         d="m 278.844,107.82 h 5.29167 5.29166 5.29167 5.29166 5.29167 5.29167 5.29166 5.29167 v 6.54086 6.54086 6.54086 6.54086 h -5.29167 -5.29166 -5.29167 -5.29167 -5.29166 -5.29167 -5.29166 -5.29167 v -6.54086 -6.54086 -6.54086 z"
         style="opacity:0.65;fill:none;stroke:#000000;stroke-width:0.5;stroke-dasharray:none"
         id="path2" /><path
         d="m 278.844,105.955 c 0.493,0 0.966,0.196 1.314,0.545 0.349,0.348 0.544,0.821 0.544,1.314 0,0.493 -0.195,0.965 -0.544,1.314 -0.348,0.348 -0.821,0.544 -1.314,0.544 m 12.938,-3.717 c 0.493,0 0.966,0.196 1.314,0.545 0.349,0.348 0.545,0.821 0.545,1.314 0,0.493 -0.196,0.965 -0.545,1.314 -0.348,0.348 -0.821,0.544 -1.314,0.544 m 12.939,-3.717 c 0.492,0 0.965,0.196 1.314,0.545 0.348,0.348 0.544,0.821 0.544,1.314 0,0.493 -0.196,0.965 -0.544,1.314 -0.349,0.348 -0.822,0.544 -1.314,0.544 m 18.321,7.568 c 0,0.493 -0.196,0.965 -0.544,1.314 -0.349,0.348 -0.821,0.544 -1.314,0.544 -0.493,0 -0.966,-0.196 -1.314,-0.544 -0.349,-0.349 -0.545,-0.821 -0.545,-1.314 m 3.717,12.938 c 0,0.493 -0.196,0.966 -0.544,1.314 -0.349,0.349 -0.821,0.545 -1.314,0.545 -0.493,0 -0.966,-0.196 -1.314,-0.545 -0.349,-0.348 -0.545,-0.821 -0.545,-1.314 m -7.281,5.67 c -0.493,0 -0.965,-0.196 -1.314,-0.544 -0.348,-0.349 -0.544,-0.821 -0.544,-1.314 0,-0.493 0.196,-0.966 0.544,-1.314 0.349,-0.349 0.821,-0.545 1.314,-0.545 m -12.938,3.717 c -0.493,0 -0.966,-0.196 -1.314,-0.544 -0.349,-0.349 -0.544,-0.821 -0.544,-1.314 0,-0.493 0.195,-0.966 0.544,-1.314 0.348,-0.349 0.821,-0.545 1.314,-0.545 m -12.938,3.717 c -0.493,0 -0.966,-0.196 -1.314,-0.544 -0.349,-0.349 -0.545,-0.821 -0.545,-1.314 0,-0.493 0.196,-0.966 0.545,-1.314 0.348,-0.349 0.821,-0.545 1.314,-0.545 m -9.189,-3.762 c 0,-0.493 0.196,-0.966 0.545,-1.314 0.348,-0.349 0.821,-0.545 1.314,-0.545 0.493,0 0.965,0.196 1.314,0.545 0.348,0.348 0.544,0.821 0.544,1.314 m -3.717,-12.938 c 0,-0.493 0.196,-0.966 0.545,-1.314 0.348,-0.349 0.821,-0.545 1.314,-0.545 0.493,0 0.965,0.196 1.314,0.545 0.348,0.348 0.544,0.821 0.544,1.314"
         style="fill:none;fill-opacity:0.6;stroke:#000000;stroke-width:0.4;stroke-dasharray:none;stroke-dashoffset:0"
         id="path1025"
         sodipodi:nodetypes="ccsscccssccssccccssccssccccssccsscccssccccsscccssc" /><path
         d="m 285.838,105.23 v 4.176 m 12.938,-4.176 v 4.176 m 12.939,-4.176 v 4.176 m 12.052,1.89 h -4.176 m 4.176,12.938 h -4.176 m -1.602,12.339 v -4.176 m -12.939,4.176 v -4.176 m -12.938,4.176 v -4.176 m -15.858,-11.022 h 4.176"
         style="fill:none;stroke:#000000;stroke-width:0.3;stroke-linecap:butt;stroke-linejoin:miter;stroke-dasharray:none;stroke-opacity:1"
         id="path3714"
         sodipodi:nodetypes="cccccccccccccccccc" /><path
         d="m 284.898,108.401 c 1.604,0.868 0.291,0.817 1.884,0.028 l -0.942,1.981 z m 12.938,0 c 1.604,0.868 0.292,0.817 1.885,0.028 l -0.943,1.981 z m 12.939,0 c 1.603,0.868 0.291,0.817 1.884,0.028 l -0.942,1.981 z m 9.821,1.955 c -0.868,1.603 -0.816,0.291 -0.028,1.884 l -1.98,-0.942 z m 0,12.938 c -0.868,1.604 -0.816,0.291 -0.028,1.884 l -1.98,-0.942 z m -1.667,10.108 c -1.604,-0.868 -0.292,-0.816 -1.885,-0.028 l 0.943,-1.98 z m -12.939,0 c -1.603,-0.868 -0.291,-0.816 -1.884,-0.028 l 0.942,-1.98 z m -12.938,0 c -1.604,-0.868 -0.291,-0.816 -1.884,-0.028 l 0.942,-1.98 z m -13.627,-11.087 c 0.868,-1.604 0.817,-0.291 0.028,-1.884 l 1.981,0.942 z"
         style="fill:#000000;fill-opacity:1;stroke:#000000;stroke-width:0.134687;stroke-linecap:butt;stroke-linejoin:miter;stroke-dasharray:none;stroke-opacity:1"
         id="path2022"
         sodipodi:nodetypes="cccccccccccccccccccccccccccccccccccc" /><path
         d="m 282.561,105.955 c -0.493,0 -0.966,0.196 -1.314,0.545 -0.349,0.348 -0.544,0.821 -0.544,1.314 0,0.493 0.195,0.965 0.544,1.314 0.348,0.348 0.821,0.544 1.314,0.544 m 12.938,-3.717 c -0.493,0 -0.965,0.196 -1.314,0.545 -0.348,0.348 -0.544,0.821 -0.544,1.314 0,0.493 0.196,0.965 0.544,1.314 0.349,0.348 0.821,0.544 1.314,0.544 m 12.939,-3.717 c -0.493,0 -0.966,0.196 -1.315,0.545 -0.348,0.348 -0.544,0.821 -0.544,1.314 0,0.493 0.196,0.965 0.544,1.314 0.349,0.348 0.822,0.544 1.315,0.544 m 14.604,11.285 c 0,-0.493 -0.196,-0.966 -0.544,-1.314 -0.349,-0.349 -0.821,-0.545 -1.314,-0.545 -0.493,0 -0.966,0.196 -1.314,0.545 -0.349,0.348 -0.545,0.821 -0.545,1.314 m 3.717,12.938 c 0,-0.493 -0.196,-0.965 -0.544,-1.314 -0.349,-0.349 -0.821,-0.544 -1.314,-0.544 -0.493,0 -0.966,0.195 -1.314,0.544 -0.349,0.349 -0.545,0.821 -0.545,1.314 m -10.998,1.953 c 0.493,0 0.966,-0.196 1.314,-0.544 0.349,-0.349 0.545,-0.821 0.545,-1.314 0,-0.493 -0.196,-0.966 -0.545,-1.314 -0.348,-0.349 -0.821,-0.545 -1.314,-0.545 m -12.938,3.717 c 0.493,0 0.966,-0.196 1.314,-0.544 0.349,-0.349 0.545,-0.821 0.545,-1.314 0,-0.493 -0.196,-0.966 -0.545,-1.314 -0.348,-0.349 -0.821,-0.545 -1.314,-0.545 m -12.938,3.717 c 0.493,0 0.965,-0.196 1.314,-0.544 0.348,-0.349 0.544,-0.821 0.544,-1.314 0,-0.493 -0.196,-0.966 -0.544,-1.314 -0.349,-0.349 -0.821,-0.545 -1.314,-0.545 m -5.472,-7.479 c 0,0.493 0.196,0.966 0.545,1.314 0.348,0.349 0.821,0.544 1.314,0.544 0.493,0 0.965,-0.195 1.314,-0.544 0.348,-0.348 0.544,-0.821 0.544,-1.314 m -3.717,-12.938 c 0,0.493 0.196,0.965 0.545,1.314 0.348,0.348 0.821,0.544 1.314,0.544 0.493,0 0.965,-0.196 1.314,-0.544 0.348,-0.349 0.544,-0.821 0.544,-1.314"
         style="fill:none;fill-opacity:0.6;stroke:#000000;stroke-width:0.4;stroke-dasharray:none;stroke-dashoffset:0"
         id="path6353"
         sodipodi:nodetypes="ccssccsscccsscccssccccscccsscccssccccsscccssccsscc" /><path
         d="m 282.561,105.955 c -0.493,0 -0.966,0.196 -1.314,0.545 -0.349,0.348 -0.544,0.821 -0.544,1.314 0,0.493 0.195,0.965 0.544,1.314 0.348,0.348 0.821,0.544 1.314,0.544 m 12.938,-3.717 c -0.493,0 -0.965,0.196 -1.314,0.545 -0.348,0.348 -0.544,0.821 -0.544,1.314 0,0.493 0.196,0.965 0.544,1.314 0.349,0.348 0.821,0.544 1.314,0.544 m 12.939,-3.717 c -0.493,0 -0.966,0.196 -1.315,0.545 -0.348,0.348 -0.544,0.821 -0.544,1.314 0,0.493 0.196,0.965 0.544,1.314 0.349,0.348 0.822,0.544 1.315,0.544 m 14.604,11.285 c 0,-0.493 -0.196,-0.966 -0.544,-1.314 -0.349,-0.349 -0.821,-0.545 -1.314,-0.545 -0.493,0 -0.966,0.196 -1.314,0.545 -0.349,0.348 -0.545,0.821 -0.545,1.314 m 3.717,12.938 c 0,-0.493 -0.196,-0.965 -0.544,-1.314 -0.349,-0.349 -0.821,-0.544 -1.314,-0.544 -0.493,0 -0.966,0.195 -1.314,0.544 -0.349,0.349 -0.545,0.821 -0.545,1.314 m -10.998,1.953 c 0.493,0 0.966,-0.196 1.314,-0.544 0.349,-0.349 0.545,-0.821 0.545,-1.314 0,-0.493 -0.196,-0.966 -0.545,-1.314 -0.348,-0.349 -0.821,-0.545 -1.314,-0.545 m -12.938,3.717 c 0.493,0 0.966,-0.196 1.314,-0.544 0.349,-0.349 0.545,-0.821 0.545,-1.314 0,-0.493 -0.196,-0.966 -0.545,-1.314 -0.348,-0.349 -0.821,-0.545 -1.314,-0.545 m -12.938,3.717 c 0.493,0 0.965,-0.196 1.314,-0.544 0.348,-0.349 0.544,-0.821 0.544,-1.314 0,-0.493 -0.196,-0.966 -0.544,-1.314 -0.349,-0.349 -0.821,-0.545 -1.314,-0.545 m -5.472,-7.479 c 0,0.493 0.196,0.966 0.545,1.314 0.348,0.349 0.821,0.544 1.314,0.544 0.493,0 0.965,-0.195 1.314,-0.544 0.348,-0.348 0.544,-0.821 0.544,-1.314 m -3.717,-12.938 c 0,0.493 0.196,0.965 0.545,1.314 0.348,0.348 0.821,0.544 1.314,0.544 0.493,0 0.965,-0.196 1.314,-0.544 0.348,-0.349 0.544,-0.821 0.544,-1.314"
         style="fill:none;fill-opacity:0.6;stroke:#000000;stroke-width:0.4;stroke-dasharray:none;stroke-dashoffset:0"
         id="path33"
         sodipodi:nodetypes="ccssccsscccsscccssccccscccsscccssccccsscccssccsscc" /></g><g
       id="g40"
       transform="translate(0,-82.328692)"><path
         d="m 278.844,107.82 h 5.29167 5.29166 5.29167 5.29166 5.29167 5.29167 5.29166 5.29167 v 6.54086 6.54086 6.54086 6.54086 h -5.29167 -5.29166 -5.29167 -5.29167 -5.29166 -5.29167 -5.29166 -5.29167 v -6.54086 -6.54086 -6.54086 z"
         style="opacity:0.65;fill:none;stroke:#000000;stroke-width:0.5;stroke-dasharray:none"
         id="path34" /><path
         d="m 278.844,105.955 c 0.493,0 0.966,0.196 1.314,0.545 0.349,0.348 0.544,0.821 0.544,1.314 0,0.493 -0.195,0.965 -0.544,1.314 -0.348,0.348 -0.821,0.544 -1.314,0.544 m 12.938,-3.717 c 0.493,0 0.966,0.196 1.314,0.545 0.349,0.348 0.545,0.821 0.545,1.314 0,0.493 -0.196,0.965 -0.545,1.314 -0.348,0.348 -0.821,0.544 -1.314,0.544 m 12.939,-3.717 c 0.492,0 0.965,0.196 1.314,0.545 0.348,0.348 0.544,0.821 0.544,1.314 0,0.493 -0.196,0.965 -0.544,1.314 -0.349,0.348 -0.822,0.544 -1.314,0.544 m 18.321,7.568 c 0,0.493 -0.196,0.965 -0.544,1.314 -0.349,0.348 -0.821,0.544 -1.314,0.544 -0.493,0 -0.966,-0.196 -1.314,-0.544 -0.349,-0.349 -0.545,-0.821 -0.545,-1.314 m 3.717,12.938 c 0,0.493 -0.196,0.966 -0.544,1.314 -0.349,0.349 -0.821,0.545 -1.314,0.545 -0.493,0 -0.966,-0.196 -1.314,-0.545 -0.349,-0.348 -0.545,-0.821 -0.545,-1.314 m -7.281,5.67 c -0.493,0 -0.965,-0.196 -1.314,-0.544 -0.348,-0.349 -0.544,-0.821 -0.544,-1.314 0,-0.493 0.196,-0.966 0.544,-1.314 0.349,-0.349 0.821,-0.545 1.314,-0.545 m -12.938,3.717 c -0.493,0 -0.966,-0.196 -1.314,-0.544 -0.349,-0.349 -0.544,-0.821 -0.544,-1.314 0,-0.493 0.195,-0.966 0.544,-1.314 0.348,-0.349 0.821,-0.545 1.314,-0.545 m -12.938,3.717 c -0.493,0 -0.966,-0.196 -1.314,-0.544 -0.349,-0.349 -0.545,-0.821 -0.545,-1.314 0,-0.493 0.196,-0.966 0.545,-1.314 0.348,-0.349 0.821,-0.545 1.314,-0.545 m -9.189,-3.762 c 0,-0.493 0.196,-0.966 0.545,-1.314 0.348,-0.349 0.821,-0.545 1.314,-0.545 0.493,0 0.965,0.196 1.314,0.545 0.348,0.348 0.544,0.821 0.544,1.314 m -3.717,-12.938 c 0,-0.493 0.196,-0.966 0.545,-1.314 0.348,-0.349 0.821,-0.545 1.314,-0.545 0.493,0 0.965,0.196 1.314,0.545 0.348,0.348 0.544,0.821 0.544,1.314"
         style="fill:none;fill-opacity:0.6;stroke:#000000;stroke-width:0.4;stroke-dasharray:none;stroke-dashoffset:0"
         id="path35"
         sodipodi:nodetypes="ccsscccssccssccccssccssccccssccsscccssccccsscccssc" /><path
         d="m 285.838,105.23 v 4.176 m 12.938,-4.176 v 4.176 m 12.939,-4.176 v 4.176 m 12.052,1.89 h -4.176 m 4.176,12.938 h -4.176 m -1.602,12.339 v -4.176 m -12.939,4.176 v -4.176 m -12.938,4.176 v -4.176 m -15.858,-11.022 h 4.176"
         style="fill:none;stroke:#000000;stroke-width:0.3;stroke-linecap:butt;stroke-linejoin:miter;stroke-dasharray:none;stroke-opacity:1"
         id="path36"
         sodipodi:nodetypes="cccccccccccccccccc" /><path
         d="m 284.898,108.401 c 1.604,0.868 0.291,0.817 1.884,0.028 l -0.942,1.981 z m 12.938,0 c 1.604,0.868 0.292,0.817 1.885,0.028 l -0.943,1.981 z m 12.939,0 c 1.603,0.868 0.291,0.817 1.884,0.028 l -0.942,1.981 z m 9.821,1.955 c -0.868,1.603 -0.816,0.291 -0.028,1.884 l -1.98,-0.942 z m 0,12.938 c -0.868,1.604 -0.816,0.291 -0.028,1.884 l -1.98,-0.942 z m -1.667,10.108 c -1.604,-0.868 -0.292,-0.816 -1.885,-0.028 l 0.943,-1.98 z m -12.939,0 c -1.603,-0.868 -0.291,-0.816 -1.884,-0.028 l 0.942,-1.98 z m -12.938,0 c -1.604,-0.868 -0.291,-0.816 -1.884,-0.028 l 0.942,-1.98 z m -13.627,-11.087 c 0.868,-1.604 0.817,-0.291 0.028,-1.884 l 1.981,0.942 z"
         style="fill:#000000;fill-opacity:1;stroke:#000000;stroke-width:0.134687;stroke-linecap:butt;stroke-linejoin:miter;stroke-dasharray:none;stroke-opacity:1"
         id="path37"
         sodipodi:nodetypes="cccccccccccccccccccccccccccccccccccc" /><path
         d="m 282.561,105.955 c -0.493,0 -0.966,0.196 -1.314,0.545 -0.349,0.348 -0.544,0.821 -0.544,1.314 0,0.493 0.195,0.965 0.544,1.314 0.348,0.348 0.821,0.544 1.314,0.544 m 12.938,-3.717 c -0.493,0 -0.965,0.196 -1.314,0.545 -0.348,0.348 -0.544,0.821 -0.544,1.314 0,0.493 0.196,0.965 0.544,1.314 0.349,0.348 0.821,0.544 1.314,0.544 m 12.939,-3.717 c -0.493,0 -0.966,0.196 -1.315,0.545 -0.348,0.348 -0.544,0.821 -0.544,1.314 0,0.493 0.196,0.965 0.544,1.314 0.349,0.348 0.822,0.544 1.315,0.544 m 14.604,11.285 c 0,-0.493 -0.196,-0.966 -0.544,-1.314 -0.349,-0.349 -0.821,-0.545 -1.314,-0.545 -0.493,0 -0.966,0.196 -1.314,0.545 -0.349,0.348 -0.545,0.821 -0.545,1.314 m 3.717,12.938 c 0,-0.493 -0.196,-0.965 -0.544,-1.314 -0.349,-0.349 -0.821,-0.544 -1.314,-0.544 -0.493,0 -0.966,0.195 -1.314,0.544 -0.349,0.349 -0.545,0.821 -0.545,1.314 m -10.998,1.953 c 0.493,0 0.966,-0.196 1.314,-0.544 0.349,-0.349 0.545,-0.821 0.545,-1.314 0,-0.493 -0.196,-0.966 -0.545,-1.314 -0.348,-0.349 -0.821,-0.545 -1.314,-0.545 m -12.938,3.717 c 0.493,0 0.966,-0.196 1.314,-0.544 0.349,-0.349 0.545,-0.821 0.545,-1.314 0,-0.493 -0.196,-0.966 -0.545,-1.314 -0.348,-0.349 -0.821,-0.545 -1.314,-0.545 m -12.938,3.717 c 0.493,0 0.965,-0.196 1.314,-0.544 0.348,-0.349 0.544,-0.821 0.544,-1.314 0,-0.493 -0.196,-0.966 -0.544,-1.314 -0.349,-0.349 -0.821,-0.545 -1.314,-0.545 m -5.472,-7.479 c 0,0.493 0.196,0.966 0.545,1.314 0.348,0.349 0.821,0.544 1.314,0.544 0.493,0 0.965,-0.195 1.314,-0.544 0.348,-0.348 0.544,-0.821 0.544,-1.314 m -3.717,-12.938 c 0,0.493 0.196,0.965 0.545,1.314 0.348,0.348 0.821,0.544 1.314,0.544 0.493,0 0.965,-0.196 1.314,-0.544 0.348,-0.349 0.544,-0.821 0.544,-1.314"
         style="fill:none;fill-opacity:0.6;stroke:#000000;stroke-width:0.4;stroke-dasharray:none;stroke-dashoffset:0"
         id="path38"
         sodipodi:nodetypes="ccssccsscccsscccssccccscccsscccssccccsscccssccsscc" /><path
         d="m 282.561,105.955 c -0.493,0 -0.966,0.196 -1.314,0.545 -0.349,0.348 -0.544,0.821 -0.544,1.314 0,0.493 0.195,0.965 0.544,1.314 0.348,0.348 0.821,0.544 1.314,0.544 m 12.938,-3.717 c -0.493,0 -0.965,0.196 -1.314,0.545 -0.348,0.348 -0.544,0.821 -0.544,1.314 0,0.493 0.196,0.965 0.544,1.314 0.349,0.348 0.821,0.544 1.314,0.544 m 12.939,-3.717 c -0.493,0 -0.966,0.196 -1.315,0.545 -0.348,0.348 -0.544,0.821 -0.544,1.314 0,0.493 0.196,0.965 0.544,1.314 0.349,0.348 0.822,0.544 1.315,0.544 m 14.604,11.285 c 0,-0.493 -0.196,-0.966 -0.544,-1.314 -0.349,-0.349 -0.821,-0.545 -1.314,-0.545 -0.493,0 -0.966,0.196 -1.314,0.545 -0.349,0.348 -0.545,0.821 -0.545,1.314 m 3.717,12.938 c 0,-0.493 -0.196,-0.965 -0.544,-1.314 -0.349,-0.349 -0.821,-0.544 -1.314,-0.544 -0.493,0 -0.966,0.195 -1.314,0.544 -0.349,0.349 -0.545,0.821 -0.545,1.314 m -10.998,1.953 c 0.493,0 0.966,-0.196 1.314,-0.544 0.349,-0.349 0.545,-0.821 0.545,-1.314 0,-0.493 -0.196,-0.966 -0.545,-1.314 -0.348,-0.349 -0.821,-0.545 -1.314,-0.545 m -12.938,3.717 c 0.493,0 0.966,-0.196 1.314,-0.544 0.349,-0.349 0.545,-0.821 0.545,-1.314 0,-0.493 -0.196,-0.966 -0.545,-1.314 -0.348,-0.349 -0.821,-0.545 -1.314,-0.545 m -12.938,3.717 c 0.493,0 0.965,-0.196 1.314,-0.544 0.348,-0.349 0.544,-0.821 0.544,-1.314 0,-0.493 -0.196,-0.966 -0.544,-1.314 -0.349,-0.349 -0.821,-0.545 -1.314,-0.545 m -5.472,-7.479 c 0,0.493 0.196,0.966 0.545,1.314 0.348,0.349 0.821,0.544 1.314,0.544 0.493,0 0.965,-0.195 1.314,-0.544 0.348,-0.348 0.544,-0.821 0.544,-1.314 m -3.717,-12.938 c 0,0.493 0.196,0.965 0.545,1.314 0.348,0.348 0.821,0.544 1.314,0.544 0.493,0 0.965,-0.196 1.314,-0.544 0.348,-0.349 0.544,-0.821 0.544,-1.314"
         style="fill:none;fill-opacity:0.6;stroke:#000000;stroke-width:0.4;stroke-dasharray:none;stroke-dashoffset:0"
         id="path40"
         sodipodi:nodetypes="ccssccsscccsscccssccccscccsscccssccccsscccssccsscc" /></g><text
       xml:space="preserve"
       style="font-size:2.82223px;line-height:1.25;font-family:'CMU Sans Serif';-inkscape-font-specification:'CMU Sans Serif, Normal';stroke-width:0.264583"
       x="214.06522"
       y="72.451393"
       id="text40"><tspan
         sodipodi:role="line"
         id="tspan40"
         style="stroke-width:0.264583"
         x="214.06522"
         y="72.451393">{\small$T_f + k_f \partial_{n_f} T_f = T_m + k_m\partial_{n_f} T_m$}</tspan></text><path
       style="fill:none;stroke:#000000;stroke-width:0.4;stroke-linecap:butt;stroke-linejoin:miter;stroke-dasharray:none;stroke-dashoffset:0;stroke-opacity:1;marker-end:url(#DartArrow)"
       d="M 259.95754,63.119378 C 259.15646,58.27039 260,53.046863 265.15971,52.635359 269.35888,52.30046 273.127,48.849795 276.254,47.699745"
       id="path5"
       sodipodi:nodetypes="csc" /><path
       style="fill:none;stroke:#000000;stroke-width:0.4;stroke-linecap:butt;stroke-linejoin:miter;stroke-dasharray:none;stroke-dashoffset:0;stroke-opacity:1;marker-end:url(#DartArrow)"
       d="m 259.95754,156.14659 c 10.56752,-8.70344 -6.66932,-17.33901 16.29646,-15.41963"
       id="path10"
       sodipodi:nodetypes="cc" /><path
       style="fill:none;stroke:#000000;stroke-width:0.4;stroke-linecap:butt;stroke-linejoin:miter;stroke-dasharray:none;stroke-dashoffset:0;stroke-opacity:1;marker-end:url(#DartArrow)"
       d="m 259.95754,156.14659 c 10.56752,-8.70344 -6.66932,-17.33901 16.29646,-15.41963"
       id="path11"
       sodipodi:nodetypes="cc" /><path
       style="fill:none;stroke:#000000;stroke-width:0.5;stroke-dasharray:none;marker-end:url(#marker13)"
       d="M 132.37555,93.433989 H 146"
       id="path12" /><text
       xml:space="preserve"
       style="font-size:2.82223px;line-height:1.25;font-family:'CMU Sans Serif';-inkscape-font-specification:'CMU Sans Serif, Normal';stroke-width:0.264583"
       x="142.05818"
       y="89.874123"
       id="text13"><tspan
         sodipodi:role="line"
         id="tspan13"
         style="stroke-width:0.264583"
         x="142.05818"
         y="89.874123">$V$</tspan></text></g></svg>
