<?xml version="1.0" encoding="UTF-8" standalone="no"?>
<svg
   inkscape:version="1.4.3 (0d15f75042, 2025-12-25)"
   sodipodi:docname="drawing.svg"
   xml:space="preserve"
   id="svg1"
   version="1.1"
   viewBox="0 0 239.48085 116.32199"
   height="116.322mm"
   width="239.481mm"
   xmlns:inkscape="http://www.inkscape.org/namespaces/inkscape"
   xmlns:sodipodi="http://sodipodi.sourceforge.net/DTD/sodipodi-0.dtd"
   xmlns="http://www.w3.org/2000/svg"
   xmlns:svg="http://www.w3.org/2000/svg"
   xmlns:rdf="http://www.w3.org/1999/02/22-rdf-syntax-ns#"
   xmlns:cc="http://creativecommons.org/ns#"
   xmlns:dc="http://purl.org/dc/elements/1.1/"><metadata
     id="metadata1013"><rdf:RDF><cc:Work
         rdf:about=""><dc:format>image/svg+xml</dc:format><dc:type
           rdf:resource="http://purl.org/dc/dcmitype/StillImage" /></cc:Work></rdf:RDF></metadata><sodipodi:namedview
     inkscape:document-rotation="0"
     showgrid="false"
     inkscape:current-layer="layer1"
     inkscape:window-maximized="1"
     inkscape:window-y="0"
     inkscape:window-x="0"
     inkscape:window-height="648"
     inkscape:window-width="1236"
     inkscape:cy="336.93638"
     inkscape:cx="228.39549"
     inkscape:zoom="1.4142136"
     inkscape:document-units="mm"
     inkscape:deskcolor="#d1d1d1"
     inkscape:pagecheckerboard="0"
     inkscape:pageopacity="0.0"
     inkscape:showpageshadow="2"
     borderopacity="1.0"
     bordercolor="#666666"
     pagecolor="#ffffff"
     id="namedview1"><sodipodi:guide
       inkscape:locked="false"
       id="guide3"
       orientation="-70.357115,0.35376378"
       position="251.67187,-17.907968" /><sodipodi:guide
       inkscape:locked="false"
       id="guide7"
       orientation="-20.948031,38.890885"
       position="172.55496,25.984661" /><sodipodi:guide
       inkscape:locked="false"
       id="guide8"
       orientation="-28.017033,-0.23659843"
       position="172.61757,18.571831" /><sodipodi:guide
       inkscape:locked="false"
       id="guide41"
       orientation="395.76728,1120.4919"
       position="0.008811799,86.929362" /><sodipodi:guide
       inkscape:locked="false"
       id="guide42"
       orientation="-34.44491,-97.520013"
       position="204.56666,25.114927" /><sodipodi:guide
       inkscape:locked="false"
       id="guide43"
       orientation="-26.499681,49.329373"
       position="198.35717,16.871126" /><sodipodi:guide
       inkscape:locked="false"
       id="guide44"
       orientation="-27.093479,50.300145"
       position="109.04996,48.704663" /><sodipodi:guide
       inkscape:locked="false"
       id="guide46"
       orientation="34.444894,97.520013"
       position="172.37862,12.429852" /><sodipodi:guide
       inkscape:locked="false"
       id="guide91"
       orientation="-46.875001,0"
       position="98.665296,20.539207" /><sodipodi:guide
       inkscape:locked="false"
       id="guide51"
       orientation="9.7499792,11.355402"
       position="116.73388,7.9153236" /><sodipodi:guide
       inkscape:locked="false"
       id="guide55"
       orientation="9.7500094,11.355402"
       position="115.29856,4.4797331" /><sodipodi:guide
       position="116.93716,17.124887"
       orientation="-20.278413,-23.617436"
       id="guide32"
       inkscape:locked="false" /><sodipodi:guide
       position="119.80244,26.862859"
       orientation="-2.451171,-2.8554709"
       id="guide33"
       inkscape:locked="false" /><sodipodi:guide
       position="118.09405,22.63056"
       orientation="-5.8828082,-6.8515654"
       id="guide34"
       inkscape:locked="false" /><sodipodi:guide
       position="116.93716,1.2415509"
       orientation="-20.278413,-23.617436"
       id="guide45"
       inkscape:locked="false" /><sodipodi:guide
       position="114.72786,-0.05438047"
       orientation="10.92189,12.722646"
       id="guide57"
       inkscape:locked="false" /><sodipodi:guide
       position="116.93716,-8.4503234"
       orientation="-20.278413,-23.617436"
       id="guide58"
       inkscape:locked="false" /><sodipodi:guide
       position="-3.8434675,8.2114435"
       orientation="119.89116,338.76624"
       id="guide1"
       inkscape:locked="false" /></sodipodi:namedview><defs
     id="defs1"><marker
       preserveAspectRatio="xMidYMid"
       inkscape:isstock="true"
       viewBox="0 0 1 1"
       markerHeight="1"
       markerWidth="1"
       inkscape:stockid="Wide, heavy arrow"
       orient="auto-start-reverse"
       refY="0"
       refX="0"
       id="marker1329"
       style="overflow:visible"><path
         id="path1327"
         d="m 1,0 -3,3 h -2 l 3,-3 -3,-3 h 2 z"
         style="fill:context-stroke;fill-rule:evenodd;stroke:#000000;stroke-opacity:1" /></marker><marker
       style="overflow:visible"
       id="marker1177"
       refX="0"
       refY="0"
       orient="auto-start-reverse"
       inkscape:stockid="Wide arrow"
       markerWidth="1"
       markerHeight="1"
       viewBox="0 0 1 1"
       inkscape:isstock="true"
       preserveAspectRatio="xMidYMid"><path
         style="fill:none;stroke:#000000;stroke-width:1;stroke-linecap:butt;stroke-opacity:1"
         d="M 3,-3 0,0 3,3"
         transform="rotate(180,0.125,0)"
         sodipodi:nodetypes="ccc"
         id="path1175" /></marker><marker
       style="overflow:visible"
       id="marker1167"
       refX="0"
       refY="0"
       orient="auto-start-reverse"
       inkscape:stockid="Wide arrow"
       markerWidth="1"
       markerHeight="1"
       viewBox="0 0 1 1"
       inkscape:isstock="true"
       preserveAspectRatio="xMidYMid"><path
         style="fill:#800080;fill-opacity:0.6;stroke:none;stroke-width:1;stroke-linecap:butt;stroke-opacity:1"
         d="M 3,-3 0,0 3,3"
         transform="rotate(180,0.125,0)"
         sodipodi:nodetypes="ccc"
         id="path1165" /></marker><marker
       style="overflow:visible"
       id="marker1093"
       refX="0"
       refY="0"
       orient="auto-start-reverse"
       inkscape:stockid="Dart arrow"
       markerWidth="0.34999999"
       markerHeight="0.34999999"
       viewBox="0 0 1 1"
       inkscape:isstock="true"
       preserveAspectRatio="xMidYMid"
       markerUnits="userSpaceOnUse"><path
         style="fill:context-stroke;fill-rule:evenodd;stroke:#000000;stroke-opacity:1"
         d="M 0,0 5,-5 -12.5,0 5,5 Z"
         transform="scale(-0.5)"
         id="path1091" /></marker><marker
       style="overflow:visible"
       id="marker1041"
       refX="0"
       refY="0"
       orient="auto-start-reverse"
       inkscape:stockid="Dart arrow"
       markerWidth="0.34999999"
       markerHeight="0.34999999"
       viewBox="0 0 1 1"
       inkscape:isstock="true"
       preserveAspectRatio="xMidYMid"
       markerUnits="userSpaceOnUse"><path
         style="fill:context-stroke;fill-rule:evenodd;stroke:#000000;stroke-opacity:1"
         d="M 0,0 5,-5 -12.5,0 5,5 Z"
         transform="scale(-0.5)"
         id="path1039" /></marker></defs><g
     id="layer1"
     inkscape:groupmode="layer"
     inkscape:label="Layer 1"
     transform="translate(0.0088118,8.9002319)"><path
       d="m -12.722029,-18.318865 v 8.6914603 L 16.424512,0.66705683 c 1.810742,-0.824755 4.276441,-1.1640367 7.162354,-1.1518674 12.505621,0.052734 32.898304,6.71078537 42.045495,9.12140717 27.35317,7.2085694 94.606549,29.8591504 108.108649,35.1849314 6.83963,2.697831 17.25981,8.045255 9.3555,15.715837 L 283.74153,95.086097 V 9.2195066 L 140.59729,-18.318865 Z"
       style="display:inline;opacity:1;fill:#003366;fill-opacity:0.4;stroke-width:0.0529167"
       id="path4" /><path
       d="M 283.74153,95.086097 183.09651,59.537365 c -6.68234,3.677004 -12.7186,4.149017 -23.1743,3.384806 C 141.23734,61.556488 81.329172,39.477288 50.352674,28.088122 34.969671,22.432235 18.236748,11.463121 16.424512,0.66757383 L -12.722029,-9.6274047 V 91.155077 l 115.172809,40.760293 181.29075,0.0879 z"
       style="display:inline;opacity:1;fill:#003366;fill-opacity:0.691879;stroke-width:0.0529167"
       id="path3" /><path
       d="m 23.586864,-0.48480717 c -2.88591,-0.0122 -5.3516,0.32711 -7.16235,1.15187 1.81163,10.79576917 18.54482,21.76504917 33.92816,27.42105917 30.97649,11.38917 90.884666,33.46837 109.569536,34.83405 10.4557,0.76421 16.49196,0.29221 23.1743,-3.3848 7.9045,-7.67063 -2.51584,-13.018 -9.3555,-15.71584 C 160.23891,38.495752 92.985531,15.845172 65.632364,8.6366026 56.485174,6.2259728 36.092484,-0.43210717 23.586864,-0.48480717 Z M 68.170714,18.944502 c 20.252347,24.46184 83.615006,39.93233 91.729276,41.3122 6.43514,1.09432 16.22337,1.55496 19.24017,-2.11666 5.6224,-5.58932 -1.74295,-10.62812 -7.60987,-13.12789 -14.0431,-5.98348 -85.169476,-25.90228 -103.359576,-26.06765 z"
       style="fill:#0000ff;fill-opacity:0.5;fill-rule:evenodd;stroke:#000000;stroke-width:0.0529167"
       id="path76" /><rect
       style="fill:#ffffff;fill-opacity:1;fill-rule:evenodd;stroke:#000000;stroke-width:0.40534;stroke-linecap:round;stroke-linejoin:round;stroke-dasharray:none;stroke-opacity:1"
       id="rect63"
       width="42.124115"
       height="70.791626"
       x="6.5535803"
       y="31.630159"
       ry="3.5732837" /><path
       d="m 35.164203,80.210147 c -1.498339,1.858206 -2.889724,4.34003 -4.366787,6.277271 l 5.856063,5.027189 3.043335,-7.537388 z"
       style="fill:#7f7fff;fill-opacity:1;stroke:none;stroke-width:0.405342;stroke-dasharray:none"
       id="path63"
       sodipodi:nodetypes="ccccc" /><path
       d="m 36.653479,68.901238 -7.737667,-6.643597 c -1.52346,1.477692 -3.312863,3.517558 -5.157552,6.877322 l 9.505098,8.162009 z"
       style="fill:#b366b3;fill-opacity:1;stroke:none;stroke-width:0.405342;stroke-dasharray:none"
       id="path50" /><g
       transform="translate(-12.722029,-32.119788)"
       style="display:inline;fill:#ffff00;fill-opacity:0.4"
       id="g28"><path
         sodipodi:nodetypes="czc"
         d="m 163.36015,80.192434 c 6.3844,-1.262848 10.57131,0.07892 13.05315,1.161799 2.48184,1.08288 4.14277,2.598171 2.19641,4.224478"
         style="fill:#ffff00;fill-opacity:0.4;stroke:#000000;stroke-width:0.0529167;stroke-linecap:butt;stroke-linejoin:miter;stroke-dasharray:none;stroke-opacity:1"
         id="path8" /><path
         sodipodi:nodetypes="csc"
         d="m 163.36015,80.192432 c 1.06292,2.013133 6.36839,5.137832 9.20781,5.799365 2.06774,0.481746 4.46057,0.467745 6.04175,-0.413086"
         style="fill:#ffff00;fill-opacity:0.4;stroke:#000000;stroke-width:0.0529167;stroke-linecap:butt;stroke-linejoin:miter;stroke-dasharray:none;stroke-opacity:1"
         id="path22" /></g><g
       transform="translate(-12.722029,-32.119788)"
       style="display:inline"
       id="g29"><path
         sodipodi:nodetypes="czc"
         d="m 146.95447,74.397811 c 14.68646,-0.374177 24.65491,1.809903 32.8593,5.12481 8.20439,3.314907 5.96746,6.136351 4.03269,7.905752"
         style="fill:none;stroke:#000000;stroke-width:0.0529167;stroke-linecap:butt;stroke-linejoin:miter;stroke-dasharray:none;stroke-opacity:1"
         id="path11" /><path
         sodipodi:nodetypes="csc"
         d="m 146.95447,74.397811 c 5.42557,6.138847 15.70792,12.332382 25.6368,14.353939 3.56843,0.726546 9.21016,0.712589 11.25519,-1.323377"
         style="fill:none;stroke:#000000;stroke-width:0.0529167;stroke-linecap:butt;stroke-linejoin:miter;stroke-dasharray:none;stroke-opacity:1"
         id="path23" /></g><g
       transform="translate(-12.722029,-32.119788)"
       style="display:inline"
       id="g30"><path
         sodipodi:nodetypes="csc"
         d="m 188.50316,89.073163 c 4.89479,-4.332552 0.20358,-8.504237 -6.46938,-10.746319 -17.2325,-5.79003 -49.19668,-15.02535 -67.15719,-15.259211"
         style="fill:none;stroke:#000000;stroke-width:0.0529167;stroke-linecap:butt;stroke-linejoin:miter;stroke-dasharray:none;stroke-opacity:1"
         id="path12" /><path
         sodipodi:nodetypes="csc"
         d="m 114.87659,63.067633 c 10.44189,11.412409 46.52452,25.011918 57.73709,27.399849 5.8382,1.243356 10.50573,1.570381 15.88948,-1.394321"
         style="fill:none;stroke:#000000;stroke-width:0.0529167;stroke-linecap:butt;stroke-linejoin:miter;stroke-dasharray:none;stroke-opacity:1"
         id="path24" /></g><g
       transform="translate(-12.722029,-32.119788)"
       style="display:inline"
       id="g31"><path
         sodipodi:nodetypes="csc"
         d="m 80.892551,51.064178 c 18.190104,0.165365 89.316689,20.084191 103.359789,26.067668 5.86692,2.499773 13.23248,7.538508 7.61008,13.127831"
         style="fill:none;stroke:#000000;stroke-width:0.0529167;stroke-linecap:butt;stroke-linejoin:miter;stroke-dasharray:none;stroke-opacity:1"
         id="path15" /><path
         sodipodi:nodetypes="csc"
         d="m 80.892551,51.064178 c 20.252349,24.461843 83.615059,39.932286 91.729329,41.312155 6.43514,1.094325 16.22374,1.554959 19.24054,-2.116656"
         style="fill:none;stroke:#000000;stroke-width:0.0529167;stroke-linecap:butt;stroke-linejoin:miter;stroke-dasharray:none;stroke-opacity:1"
         id="path25" /></g><g
       transform="translate(0,-22.701155)"
       style="display:inline;fill:#ffff00;fill-opacity:0.4"
       id="g54" /><g
       transform="translate(110.80047,-87.06105)"
       style="display:inline"
       id="g56" /><path
       d="m 155.02183,47.568799 c -1.32911,0.03488 -2.78761,0.188133 -4.38371,0.503845 1.06292,2.013133 6.36829,5.137596 9.20771,5.799129 2.06774,0.481746 4.46031,0.467937 6.04149,-0.412894 1.94636,-1.626307 0.28559,-3.141669 -2.19625,-4.224549 -1.86138,-0.812159 -4.68192,-1.770163 -8.66924,-1.665531 z m -20.78943,-5.29115 c 5.42557,6.138847 15.7078,12.332606 25.63668,14.354163 3.56843,0.726546 9.2101,0.712532 11.25513,-1.323434 1.93477,-1.769401 4.17156,-4.59107 -4.03283,-7.905977 -8.20439,-3.314907 -18.17252,-5.498929 -32.85898,-5.124752 z"
       style="fill:#ff8000;fill-opacity:0.9;fill-rule:evenodd;stroke:#000000;stroke-width:0.0529167"
       id="path62" /><g
       transform="translate(139.94232,-89.215501)"
       style="display:inline"
       id="g64" /><path
       d="m 134.2324,42.277649 c 5.42557,6.138847 15.7078,12.332606 25.63668,14.354163 3.56843,0.726546 9.2101,0.712532 11.25513,-1.323434 1.93477,-1.769401 4.17156,-4.59107 -4.03283,-7.905977 -8.20439,-3.314907 -18.17252,-5.498929 -32.85898,-5.124752 z M 102.15456,30.947845 c 10.44189,11.412409 46.52452,25.011918 57.73709,27.399849 5.8382,1.243356 10.50573,1.570381 15.88948,-1.394321 m 0,2e-6 c 4.89479,-4.332552 0.20358,-8.504237 -6.46938,-10.746319 -17.2325,-5.79003 -49.19668,-15.02535 -67.15719,-15.259211"
       style="fill:#ff0000;fill-opacity:0.8;fill-rule:evenodd;stroke:#000000;stroke-width:0.0529167"
       id="path66" /><g
       transform="translate(164.63803,-102.11489)"
       style="display:inline"
       id="g68" /><path
       d="m 102.15456,30.947845 c 10.44189,11.412409 46.52448,25.011947 57.73705,27.399878 5.8382,1.243356 10.50572,1.570472 15.88947,-1.39423 4.89479,-4.332552 0.20358,-8.504549 -6.46938,-10.746631 -17.2325,-5.79003 -49.19663,-15.025156 -67.15714,-15.259017 z M 68.170421,18.944362 c 20.25235,24.461843 83.615059,39.932286 91.729329,41.312155 6.43514,1.094325 16.22374,1.554959 19.24054,-2.116656 M 68.170421,18.944362 c 18.1901,0.165365 89.316689,20.084191 103.359789,26.067668 5.86692,2.499773 13.23248,7.538508 7.61008,13.127831"
       style="fill:#800080;fill-opacity:0.6;fill-rule:evenodd;stroke:#000000;stroke-width:0.0529167"
       id="path71" /><text
       id="text46"
       y="50.947582"
       x="191.42677"
       style="font-size:1.41111px;line-height:1.25;font-family:FreeSerif;-inkscape-font-specification:'FreeSerif, Normal';stroke-width:0.264583"
       xml:space="preserve"><tspan
         y="50.947582"
         x="191.42677"
         style="stroke-width:0.264583"
         id="tspan46"
         sodipodi:role="line">\Large$\Gamma$</tspan></text><text
       id="text51"
       y="5.3318887"
       x="138.81807"
       style="font-size:1.41111px;line-height:1.25;font-family:FreeSerif;-inkscape-font-specification:'FreeSerif, Normal';stroke-width:0.264583"
       xml:space="preserve"><tspan
         y="5.3318887"
         x="138.81807"
         style="stroke-width:0.264583"
         id="tspan51"
         sodipodi:role="line">\labelbox{\Large$\Omega_2$}</tspan></text><text
       id="text52"
       y="43.808014"
       x="113.45916"
       style="font-size:1.41111px;line-height:1.25;font-family:FreeSerif;-inkscape-font-specification:'FreeSerif, Normal';stroke-width:0.264583"
       xml:space="preserve"><tspan
         y="43.808014"
         x="113.45916"
         style="stroke-width:0.264583"
         id="tspan52"
         sodipodi:role="line">\labelbox{\Large$\Omega_1$}</tspan></text><path
       id="path27"
       d="M -12.722029,-9.6275427 283.74145,95.085877"
       style="display:inline;fill:none;stroke:#000000;stroke-width:0.0529167;stroke-linecap:butt;stroke-linejoin:miter;stroke-dasharray:none;stroke-opacity:1" /><path
       d="m 35.615141,36.21819 c -1.045208,1.701932 -2.157097,3.350304 -4.379921,5.375105 -0.150654,0.137275 -0.296108,0.270905 -0.437804,0.401852 l 5.856063,5.02719 2.972983,-7.361886 z"
       style="fill:#7f7fff;fill-opacity:1;stroke:none;stroke-width:0.404919"
       id="path36" /><path
       d="m 95.994631,28.772105 v 13.617117 l 89.631899,31.7212 M 197.3482,54.133983 107.69742,22.468558 95.994631,28.772105 m 89.631899,31.658747 v 13.67957 m 0,-13.67957 11.75877,-6.316802"
       style="fill:none;stroke:#000000;stroke-width:0.264583px;stroke-linecap:butt;stroke-linejoin:miter;stroke-opacity:1"
       id="path46" /><path
       sodipodi:nodetypes="cc"
       id="path77"
       d="M 161.22461,41.374819 C 158.22626,50.365381 67.197102,64.984658 48.677696,61.37921"
       style="fill:none;stroke:#000000;stroke-width:0.2;stroke-linecap:butt;stroke-linejoin:miter;stroke-dasharray:0.4,0.4;stroke-dashoffset:0;stroke-opacity:1" /><rect
       transform="rotate(20.128789)"
       rx="0"
       ry="0.91363931"
       y="-17.548403"
       x="164.70198"
       height="1.8272786"
       width="1.8272786"
       id="rect95"
       style="opacity:1;fill:none;fill-opacity:0.501961;fill-rule:evenodd;stroke:#000000;stroke-width:0.3;stroke-dasharray:none;stroke-dashoffset:0;stroke-opacity:1" /><text
       id="text99"
       y="90.178444"
       x="87.15065"
       style="font-size:1.41111px;line-height:1.25;font-family:FreeSerif;-inkscape-font-specification:'FreeSerif, Normal';stroke-width:0.264583"
       xml:space="preserve"><tspan
         y="90.178444"
         x="87.15065"
         style="stroke-width:0.264583"
         id="tspan99"
         sodipodi:role="line">\labelbox{$\left(k_1 \nabla T_1 - k_2 \nabla T_2\right)\cdot \hat{n} \neq 0$}</tspan></text><text
       id="text101"
       y="75.599594"
       x="87.15065"
       style="font-size:1.41111px;line-height:1.25;font-family:FreeSerif;-inkscape-font-specification:'FreeSerif, Normal';stroke-width:0.264583"
       xml:space="preserve"><tspan
         y="75.599594"
         x="87.15065"
         style="stroke-width:0.264583"
         id="tspan101"
         sodipodi:role="line">\labelbox{$\left(T_1 - T_2\right) \neq 0$}</tspan></text><text
       id="text102"
       y="51.701542"
       x="9.2256212"
       style="font-size:2.45486px;line-height:1.25;font-family:FreeSerif;-inkscape-font-specification:'FreeSerif, Normal';stroke-width:0.460286"
       xml:space="preserve"><tspan
         y="51.701542"
         x="9.2256212"
         style="stroke-width:0.460286"
         id="tspan102"
         sodipodi:role="line">\LARGE\ding{51}</tspan></text><path
       d="m 36.653479,47.022337 -5.856063,-5.02719 c -1.715831,1.585539 -2.841308,2.839495 -5.037079,6.980712 l 7.503021,6.442213 z"
       style="fill:#b366b3;fill-opacity:1;stroke:none;stroke-width:0.405342;stroke-dasharray:none"
       id="path35" /><path
       style="fill:none;stroke:#000000;stroke-width:0.404919;stroke-linecap:butt;stroke-linejoin:miter;stroke-dasharray:none;stroke-opacity:1;marker-end:url(#marker1177)"
       d="M 32.671106,56.885683 40.826345,36.687378"
       id="path16"
       sodipodi:nodetypes="cc" /><path
       style="fill:none;stroke:#000000;stroke-width:0.404919;stroke-linecap:butt;stroke-linejoin:miter;stroke-dasharray:none;stroke-opacity:1"
       d="m 25.760371,48.976274 c 2.377132,-4.48323 3.499616,-5.58323 5.475024,-7.382674 2.359195,-2.149031 3.467118,-3.874458 4.571911,-5.68945"
       id="path17"
       sodipodi:nodetypes="csc" /><path
       style="fill:none;stroke:#000000;stroke-width:0.404066;stroke-linecap:butt;stroke-linejoin:miter;stroke-dasharray:none;stroke-opacity:1;marker-end:url(#marker1177)"
       d="M 34.640877,56.601268 23.77009,47.267387"
       id="path61" /><text
       id="text68"
       y="40.524567"
       x="25.64784"
       style="font-size:2.45486px;line-height:1.25;font-family:FreeSerif;-inkscape-font-specification:'FreeSerif, Normal';stroke-width:0.460286"
       xml:space="preserve"><tspan
         y="40.524567"
         x="25.64784"
         style="stroke-width:0.460286"
         id="tspan68"
         sodipodi:role="line">\footnotesize\rotatebox{60}{$T_2$}</tspan></text><text
       xml:space="preserve"
       style="font-size:2.45486px;line-height:1.25;font-family:FreeSerif;-inkscape-font-specification:'FreeSerif, Normal';stroke-width:0.460286"
       x="20.233057"
       y="47.11335"
       id="text1163"><tspan
         sodipodi:role="line"
         id="tspan1161"
         style="stroke-width:0.460286"
         x="20.233057"
         y="47.11335">\footnotesize\rotatebox{60}{$T_1$}</tspan></text><path
       d="m 35.615141,58.096315 c -1.045208,1.701932 -2.157097,3.350304 -4.379921,5.375104 -0.150654,0.137277 -0.296108,0.270905 -0.437804,0.401852 l 5.856063,5.027184 2.972983,-7.361879 z"
       style="fill:#7f7fff;fill-opacity:1;stroke:none;stroke-width:0.404919"
       id="path37" /><path
       style="fill:none;stroke:#000000;stroke-width:0.404919;stroke-linecap:butt;stroke-linejoin:miter;stroke-dasharray:none;stroke-opacity:1;marker-end:url(#marker1177)"
       d="M 32.671106,78.763806 40.826345,58.565503"
       id="path39"
       sodipodi:nodetypes="cc" /><path
       id="path40"
       style="fill:none;stroke:#000000;stroke-width:0.404919;stroke-linecap:butt;stroke-linejoin:miter;stroke-dasharray:none;stroke-opacity:1"
       d="m 30.79752,63.872899 c 0.141609,-0.130875 0.287272,-0.263987 0.437875,-0.401175 2.359195,-2.149031 3.467118,-3.874457 4.571911,-5.689448" /><path
       id="path48"
       style="fill:none;stroke:#000000;stroke-width:0.404919;stroke-linecap:butt;stroke-linejoin:miter;stroke-dasharray:none;stroke-opacity:1"
       d="m 23.75826,69.134963 c 2.19591,-4.141443 3.558451,-5.264692 5.166546,-6.893504"
       sodipodi:nodetypes="cc" /><path
       style="fill:none;stroke:#000000;stroke-width:0.404066;stroke-linecap:butt;stroke-linejoin:miter;stroke-dasharray:none;stroke-opacity:1;marker-end:url(#marker1177)"
       d="M 34.640877,78.479388 21.634216,67.311588"
       id="path41"
       sodipodi:nodetypes="cc" /><path
       d="m 30.797416,86.487418 -9.04e-4,-9.06e-4 c -1.875116,-1.539795 -6.009449,2.245406 -7.298054,5.039785 l 9.7649,8.384937 3.390121,-8.396627 z"
       style="fill:#b366b3;fill-opacity:1;stroke:none;stroke-width:0.461011;stroke-dasharray:none"
       id="path60" /><path
       style="fill:none;stroke:#000000;stroke-width:0.404919;stroke-linecap:butt;stroke-linejoin:miter;stroke-dasharray:none;stroke-opacity:1;marker-end:url(#marker1177)"
       d="M 32.671106,101.37799 40.826345,81.179697"
       id="path54"
       sodipodi:nodetypes="cc" /><path
       style="fill:none;stroke:#000000;stroke-width:0.404919;stroke-linecap:butt;stroke-linejoin:miter;stroke-dasharray:none;stroke-opacity:1"
       d="m 23.498214,91.526247 c 1.288832,-2.794875 5.424556,-6.58073 7.299202,-5.038795 1.701133,-2.231087 3.0925,-5.2286 4.412558,-6.386643"
       id="path55"
       sodipodi:nodetypes="ccc" /><path
       style="fill:none;stroke:#000000;stroke-width:0.404066;stroke-linecap:butt;stroke-linejoin:miter;stroke-dasharray:none;stroke-opacity:1;marker-end:url(#marker1177)"
       d="M 34.640877,101.09358 20.986103,89.369314"
       id="path56"
       sodipodi:nodetypes="cc" /><text
       xml:space="preserve"
       style="font-size:2.45486px;line-height:1.25;font-family:sans-serif;text-align:center;letter-spacing:0px;word-spacing:0px;text-anchor:middle;stroke-width:0.460286"
       x="44.527748"
       y="42.938042"
       id="text65"><tspan
         sodipodi:role="line"
         id="tspan65"
         style="stroke-width:0.460286"
         x="44.527748"
         y="42.938042">\footnotesize\rotatebox{60}{$x_n$}</tspan></text><text
       id="text1"
       y="73.331238"
       x="9.2256212"
       style="font-size:2.45486px;line-height:1.25;font-family:FreeSerif;-inkscape-font-specification:'FreeSerif, Normal';stroke-width:0.460286"
       xml:space="preserve"><tspan
         y="73.331238"
         x="9.2256212"
         style="stroke-width:0.460286"
         id="tspan1"
         sodipodi:role="line">\LARGE\ding{55}</tspan></text><text
       id="text2"
       y="95.820824"
       x="9.2256212"
       style="font-size:2.45486px;line-height:1.25;font-family:FreeSerif;-inkscape-font-specification:'FreeSerif, Normal';stroke-width:0.460286"
       xml:space="preserve"><tspan
         y="95.820824"
         x="9.2256212"
         style="stroke-width:0.460286"
         id="tspan2"
         sodipodi:role="line">\LARGE\ding{55}</tspan></text><path
       style="fill:none;stroke:#000000;stroke-width:0.2;stroke-dasharray:none;stroke-dashoffset:0;marker-end:"
       d="m 85.116532,74.213909 c 0,-2.712785 -36.754271,-0.571931 -45.173261,-5.062059"
       id="path1"
       sodipodi:nodetypes="cc" /><path
       style="fill:none;stroke:#000000;stroke-width:0.2;stroke-dasharray:none;stroke-dashoffset:0;marker-end:"
       d="M 85.458522,89.129226 C 81.067478,90.197409 48.677695,95.837468 39.60913,91.611923"
       id="path5"
       sodipodi:nodetypes="cc" /></g></svg>
