<?xml version="1.0" encoding="UTF-8" standalone="no"?>
<!-- Created with Inkscape (http://www.inkscape.org/) -->

<svg
   width="82.263mm"
   height="41.694mm"
   viewBox="0 0 82.263 41.693998"
   version="1.1"
   id="svg1"
   inkscape:version="1.4.2 (ebf0e94, 2025-05-08)"
   sodipodi:docname="schematic.svg"
   inkscape:export-filename="../cb82bb1b/schematic.pdf"
   inkscape:export-xdpi="164.202"
   inkscape:export-ydpi="164.202"
   xml:space="preserve"
   xmlns:inkscape="http://www.inkscape.org/namespaces/inkscape"
   xmlns:sodipodi="http://sodipodi.sourceforge.net/DTD/sodipodi-0.dtd"
   xmlns:xlink="http://www.w3.org/1999/xlink"
   xmlns="http://www.w3.org/2000/svg"
   xmlns:svg="http://www.w3.org/2000/svg"><sodipodi:namedview
     id="namedview1"
     pagecolor="#ffffff"
     bordercolor="#666666"
     borderopacity="1.0"
     inkscape:showpageshadow="2"
     inkscape:pageopacity="0.0"
     inkscape:pagecheckerboard="0"
     inkscape:deskcolor="#d1d1d1"
     inkscape:document-units="mm"
     showgrid="true"
     inkscape:zoom="4"
     inkscape:cx="176.375"
     inkscape:cy="79.75"
     inkscape:window-width="1920"
     inkscape:window-height="1016"
     inkscape:window-x="0"
     inkscape:window-y="0"
     inkscape:window-maximized="1"
     inkscape:current-layer="layer1"
     borderlayer="false"><inkscape:grid
       id="grid1"
       units="mm"
       originx="-71.727676"
       originy="-61.045223"
       spacingx="0.26458334"
       spacingy="0.26458333"
       empcolor="#0099e5"
       empopacity="0.30196078"
       color="#0099e5"
       opacity="0.14901961"
       empspacing="5"
       enabled="true"
       visible="true" /><sodipodi:guide
       position="19.008421,0.8031259"
       orientation="0,92.379519"
       id="guide2"
       inkscape:locked="false" /><sodipodi:guide
       position="39.671471,14.379184"
       orientation="0,19.083817"
       id="guide3"
       inkscape:locked="false" /><sodipodi:guide
       position="17.053223,-56.126847"
       orientation="0,23.476562"
       id="guide24"
       inkscape:locked="false" /><sodipodi:guide
       position="37.966384,-32.933394"
       orientation="-73.802117,16.217802"
       id="guide5"
       inkscape:locked="false" /><sodipodi:guide
       position="37.966384,-32.933394"
       orientation="-73.802117,-16.217802"
       id="guide6"
       inkscape:locked="false" /><sodipodi:guide
       position="22.704554,-17.143804"
       orientation="-0.24175491,0.97033734"
       id="guide12"
       inkscape:locked="false"
       inkscape:label=""
       inkscape:color="rgb(0,134,229)" /><sodipodi:guide
       position="37.966388,-32.933394"
       orientation="-1,0"
       id="guide1151"
       inkscape:locked="false"
       inkscape:label=""
       inkscape:color="rgb(0,134,229)" /><sodipodi:guide
       position="40.460324,-21.353378"
       orientation="0,4.4228787"
       id="guide1330"
       inkscape:locked="false" /><sodipodi:guide
       position="43.038463,-21.500708"
       orientation="-1.2077858,0.53544567"
       id="guide1331"
       inkscape:locked="false" /><sodipodi:guide
       position="42.197263,-13.406602"
       orientation="0,9.2918551"
       id="guide1332"
       inkscape:locked="false" /></sodipodi:namedview><defs
     id="defs1"><linearGradient
       id="linearGradient420"
       inkscape:collect="always"><stop
         style="stop-color:#c8b7b7;stop-opacity:1;"
         offset="0"
         id="stop420" /><stop
         style="stop-color:#a09080;stop-opacity:0;"
         offset="1"
         id="stop421" /></linearGradient><linearGradient
       id="swatch24"
       inkscape:swatch="solid"><stop
         style="stop-color:#800080;stop-opacity:1;"
         offset="0"
         id="stop24" /></linearGradient><linearGradient
       id="linearGradient25"
       inkscape:collect="always"><stop
         style="stop-color:#ffffff;stop-opacity:0;"
         offset="0"
         id="stop26" /><stop
         style="stop-color:#0000ff;stop-opacity:1;"
         offset="1"
         id="stop25" /></linearGradient><linearGradient
       id="linearGradient17"
       inkscape:collect="always"><stop
         style="stop-color:#ff4d4d;stop-opacity:1;"
         offset="0"
         id="stop17" /><stop
         style="stop-color:#ffffff;stop-opacity:0;"
         offset="1"
         id="stop18" /></linearGradient><marker
       style="overflow:visible"
       id="ConcaveTriangle"
       refX="0"
       refY="0"
       orient="auto-start-reverse"
       inkscape:stockid="Concave triangle arrow"
       markerWidth="1"
       markerHeight="1"
       viewBox="0 0 1 1"
       inkscape:isstock="true"
       inkscape:collect="always"
       preserveAspectRatio="xMidYMid"><path
         transform="scale(0.7)"
         d="M -2,-4 9,0 -2,4 c 2,-2.33 2,-5.66 0,-8 z"
         style="fill:context-stroke;fill-rule:evenodd;stroke:none"
         id="path7" /></marker><marker
       style="overflow:visible"
       id="marker53"
       refX="0"
       refY="0"
       orient="auto-start-reverse"
       inkscape:stockid="Dart arrow"
       markerWidth="1"
       markerHeight="1"
       viewBox="0 0 1 1"
       inkscape:isstock="true"
       inkscape:collect="always"
       preserveAspectRatio="xMidYMid"><path
         style="fill:context-stroke;fill-rule:evenodd;stroke:none"
         d="M 0,0 5,-5 -12.5,0 5,5 Z"
         transform="scale(-0.5)"
         id="path53" /></marker><marker
       style="overflow:visible"
       id="DartArrow"
       refX="0"
       refY="0"
       orient="auto-start-reverse"
       inkscape:stockid="Dart arrow"
       markerWidth="1"
       markerHeight="1"
       viewBox="0 0 1 1"
       inkscape:isstock="true"
       inkscape:collect="always"
       preserveAspectRatio="xMidYMid"><path
         style="fill:context-stroke;fill-rule:evenodd;stroke:none"
         d="M 0,0 5,-5 -12.5,0 5,5 Z"
         transform="scale(-0.5)"
         id="path6" /></marker><linearGradient
       inkscape:collect="always"
       xlink:href="#linearGradient17"
       id="linearGradient18"
       x1="99.049759"
       y1="166.63779"
       x2="99.049759"
       y2="160.42618"
       gradientUnits="userSpaceOnUse"
       gradientTransform="matrix(0.8126648,0,0,1,29.199784,-33.859369)" /><radialGradient
       inkscape:collect="always"
       xlink:href="#linearGradient25"
       id="radialGradient26"
       cx="91.88665"
       cy="157.86607"
       fx="91.88665"
       fy="157.86607"
       r="3.1057534"
       gradientTransform="matrix(0.8126648,0,0,0.15954582,34.990919,98.905743)"
       gradientUnits="userSpaceOnUse" /><linearGradient
       inkscape:collect="always"
       xlink:href="#linearGradient420"
       id="linearGradient421"
       x1="99.306717"
       y1="125.90921"
       x2="109.69405"
       y2="125.90921"
       gradientUnits="userSpaceOnUse" /><filter
       inkscape:collect="always"
       style="color-interpolation-filters:sRGB"
       id="filter421"
       x="-0.27514"
       y="-0.33483791"
       width="1.55028"
       height="1.6696758"><feGaussianBlur
         inkscape:collect="always"
         stdDeviation="0.023457511"
         id="feGaussianBlur421" /></filter><filter
       inkscape:collect="always"
       style="color-interpolation-filters:sRGB"
       id="filter422"
       x="-0.042500839"
       y="-0.055133726"
       width="1.0850017"
       height="1.1102675"><feGaussianBlur
         inkscape:collect="always"
         stdDeviation="0.0037459176"
         id="feGaussianBlur422" /></filter><linearGradient
       inkscape:collect="always"
       xlink:href="#linearGradient420"
       id="linearGradient1329"
       gradientUnits="userSpaceOnUse"
       x1="99.306717"
       y1="125.90921"
       x2="109.69405"
       y2="125.90921" /></defs><g
     inkscape:label="Layer 1"
     inkscape:groupmode="layer"
     id="layer1"
     transform="translate(-71.727674,-61.045229)"><path
       style="opacity:0.9;fill:#c8b7b7;stroke:none;stroke-width:0.2;stroke-linecap:butt;stroke-linejoin:miter;stroke-dasharray:none;stroke-opacity:1"
       d="M 135.10709,97.052758 H 87.005067 c 2.86698,-3.69306 1.673578,-9.689118 3.492245,-10.739126 1.818668,-1.050008 21.521608,0.533336 23.585618,-1.530676 0.84805,-0.84805 1.03544,-3.141121 1.70074,-3.604682 0.66531,-0.463562 17.03417,-0.776416 17.81059,4e-6 0.77642,0.776419 0.28497,11.646898 4.12381,15.87448 z"
       id="path2"
       sodipodi:nodetypes="cczszzcc" /><path
       style="opacity:0.9;fill:#916f6f;fill-opacity:1;stroke:none;stroke-width:0.2;stroke-linecap:butt;stroke-linejoin:miter;stroke-dasharray:none;stroke-opacity:1"
       d="m 153.0243,97.062023 v 5.428927 H 71.727674 v -5.428927 z"
       id="path3"
       sodipodi:nodetypes="ccccc" /><path
       style="display:none;fill:none;stroke:#000000;stroke-width:0.1;stroke-linecap:butt;stroke-linejoin:miter;stroke-dasharray:none;stroke-dashoffset:0;stroke-opacity:1"
       d="m 116.80208,81.070857 c -2.4444,-0.04733 -9.20811,-0.143456 -9.7341,0.260421 -1.25475,0.963435 -0.43734,3.135094 -2.93987,4.59288"
       id="path4"
       sodipodi:nodetypes="csc" /><path
       d="m 116.45101,81.040956 c -0.36517,0.04338 -0.59907,0.08975 -0.66734,0.137318 -0.20078,0.139893 -0.35797,0.445988 -0.50298,0.829112 a 0.76390418,0.76390418 0 0 0 0.52898,0.21326 0.76390418,0.76390418 0 0 0 0.76409,-0.764094 0.76390418,0.76390418 0 0 0 -0.12275,-0.415596 z"
       style="fill:#ffff00;stroke:none;stroke-width:0.2;stroke-dasharray:none"
       id="path9" /><path
       d="m 114.73638,83.671248 c 0.33449,0.165904 0.67735,0.253283 1.05073,0.253312 1.33779,-4.8e-5 2.42227,-1.084529 2.42232,-2.422319 -3e-4,-0.179401 0.0175,-0.436237 -0.0505,-0.590687 -0.23421,-0.0015 -1.1205,0.06207 -1.70792,0.129402 0.0602,0.111712 0.11854,0.276636 0.11835,0.403549 1e-4,0.422038 -0.34205,0.764195 -0.76408,0.764094 -0.19582,-2.27e-4 -0.38406,-0.07564 -0.52587,-0.210659 -0.19737,0.506585 -0.51359,1.542052 -0.55754,1.658841 z"
       style="fill:#ff0000;stroke:none;stroke-width:0.2;stroke-dasharray:none"
       id="path11"
       sodipodi:nodetypes="cccccccccc" /><text
       xml:space="preserve"
       style="font-size:1.41111px;line-height:1.25;font-family:'CMU Sans Serif';-inkscape-font-specification:'CMU Sans Serif, Normal';stroke-width:0.264583"
       x="118.97359"
       y="97.530693"
       id="text11"><tspan
         sodipodi:role="line"
         id="tspan11"
         style="font-size:1.41111px;stroke-width:0.264583"
         x="118.97359"
         y="97.530693">\LARGE$\Omega\big|_{t^n}$</tspan></text><text
       xml:space="preserve"
       style="font-size:1.41111px;line-height:1.25;font-family:'CMU Sans Serif';-inkscape-font-specification:'CMU Sans Serif, Normal';stroke-width:0.264583"
       x="92.275078"
       y="77.569664"
       id="text13"><tspan
         sodipodi:role="line"
         id="tspan13"
         style="font-size:1.41111px;stroke-width:0.264583"
         x="92.275078"
         y="77.569664">{\footnotesize $\Omega\big|_{t^{n+1}}\setminus \Omega\big|_{t^{n}}$}</tspan></text><path
       style="fill:none;stroke:#000000;stroke-width:0.1;stroke-linecap:butt;stroke-linejoin:miter;stroke-dasharray:none;stroke-opacity:1;marker-end:url(#DartArrow)"
       d="m 94.094467,78.644707 c 1.523051,2.197319 1.982797,4.174645 6.365303,3.423047 4.38251,-0.751598 7.50755,1.339453 7.50755,1.339453"
       id="path13"
       sodipodi:nodetypes="czc" /><path
       style="opacity:0.9;fill:none;fill-opacity:1;stroke:none;stroke-width:0.0151181;stroke-dasharray:none;stroke-dashoffset:0"
       d="m 122.97029,27.983653 c 0,-0.01193 0.15057,-0.115538 0.33461,-0.230242 1.58159,-0.985763 3.1465,-2.435398 4.22483,-3.913627 1.22351,-1.677256 1.96206,-3.371515 2.90769,-6.670348 0.50369,-1.757132 0.68103,-2.315764 0.96102,-3.0273 0.13391,-0.340296 0.25058,-0.626327 0.25928,-0.635627 0.009,-0.0093 0.30982,0.05615 0.66918,0.145437 3.45213,0.857759 7.13029,2.222728 10.06673,3.73577 0.96148,0.495416 1.97739,1.073519 1.99866,1.137332 0.008,0.02386 -0.18592,0.08015 -0.43084,0.12509 -0.24492,0.04494 -0.45325,0.09456 -0.46296,0.110272 -0.0209,0.03384 3.24405,1.079623 3.27475,1.04892 0.0116,-0.01157 -0.48036,-0.610133 -1.09317,-1.330139 -0.61282,-0.720005 -1.12238,-1.300936 -1.13236,-1.290956 -0.01,0.01 0.0233,0.22142 0.074,0.469866 0.1154,0.565824 0.11617,0.55399 -0.0294,0.456941 -0.0668,-0.04456 -0.44968,-0.266568 -0.85074,-0.493342 -3.08207,-1.742709 -7.32363,-3.391047 -11.2359,-4.366453 l -0.6514,-0.162406 0.15224,-0.270848 c 0.47966,-0.85334 1.33721,-1.808891 1.846,-2.056958 1.30797,-0.637726 6.50901,-0.9473926 17.53465,-1.0440023 3.0561,-0.026778 12.76789,0.035996 14.72799,0.095198 l 0.96151,0.029041 -0.27663,0.093403 c -0.32926,0.1111743 -0.56417,0.2910093 -0.86254,0.6603133 -0.83799,1.037208 -1.36582,2.362473 -3.20651,8.050953 -0.70156,2.168123 -1.60053,3.902253 -2.52831,4.877195 -0.53583,0.563068 -1.12494,0.950584 -2.02772,1.333834 -4.21749,1.79041 -13.36134,2.762591 -28.64181,3.04522 -3.59379,0.06647 -6.56283,0.101515 -6.56283,0.07746 z"
       id="path14"
       transform="matrix(0.26458333,0,0,0.26458333,71.727674,78.510883)" /><path
       style="opacity:0.9;fill:none;fill-opacity:1;stroke:none;stroke-width:0.00267253;stroke-dasharray:none;stroke-dashoffset:0"
       d="m 123.82656,27.540559 c 1.30862,-0.950373 2.72948,-2.306829 3.52368,-3.363951 1.50835,-2.007712 2.09103,-3.380479 3.6214,-8.531871 0.67484,-2.271584 0.50366,-2.194912 3.16042,-1.415578 2.75235,0.807373 5.42848,1.857207 7.95221,3.119604 1.79057,0.895664 2.28916,1.301178 1.59983,1.301178 -0.59257,0 0.047,0.324673 1.52726,0.775243 0.82054,0.24977 1.52398,0.422044 1.5632,0.38283 0.0392,-0.03921 -0.43327,-0.677234 -1.04996,-1.417824 -1.01557,-1.219603 -1.12649,-1.304636 -1.1767,-0.902112 l -0.0554,0.444415 -1.44716,-0.774741 c -2.62432,-1.40493 -8.16196,-3.515545 -10.24181,-3.903562 -0.3646,-0.06802 -0.66291,-0.218473 -0.66291,-0.334339 0,-0.307725 0.99564,-1.611269 1.46616,-1.919561 1.25743,-0.8239 4.84616,-1.0294003 19.82464,-1.1352108 l 13.24746,-0.093582 -0.55887,0.5588738 c -0.79219,0.792186 -1.44738,2.267856 -2.8395,6.395312 -0.66908,1.983719 -1.47049,4.109918 -1.78093,4.724888 -0.76861,1.522609 -1.79156,2.581682 -3.09407,3.20331 -3.89313,1.85802 -13.44159,2.911169 -28.20943,3.111365 -6.57599,0.08915 -6.79116,0.08156 -6.36948,-0.224687 z"
       id="path29"
       transform="matrix(0.26458333,0,0,0.26458333,71.727674,78.510883)" /><path
       style="opacity:0.9;fill:none;fill-opacity:1;stroke:none;stroke-width:0.000668132;stroke-dasharray:none;stroke-dashoffset:0"
       d="m 122.97029,27.983653 c 0,-0.01193 0.15057,-0.115538 0.33461,-0.230242 1.58159,-0.985763 3.1465,-2.435398 4.22483,-3.913627 1.22351,-1.677256 1.96206,-3.371515 2.90769,-6.670348 0.50369,-1.757132 0.68103,-2.315764 0.96102,-3.0273 0.13391,-0.340296 0.25058,-0.626327 0.25928,-0.635627 0.009,-0.0093 0.30982,0.05615 0.66918,0.145437 3.45213,0.857759 7.13029,2.222728 10.06673,3.73577 0.96148,0.495416 1.97739,1.073519 1.99866,1.137332 0.008,0.02386 -0.18592,0.08015 -0.43084,0.12509 -0.24492,0.04494 -0.45325,0.09456 -0.46296,0.110272 -0.0209,0.03384 3.24405,1.079623 3.27475,1.04892 0.0116,-0.01157 -0.48036,-0.610133 -1.09317,-1.330139 -0.61282,-0.720005 -1.12238,-1.300936 -1.13236,-1.290956 -0.01,0.01 0.0233,0.22142 0.074,0.469866 0.1154,0.565824 0.11617,0.55399 -0.0294,0.456941 -0.0668,-0.04456 -0.44968,-0.266568 -0.85074,-0.493342 -3.08207,-1.742709 -7.32363,-3.391047 -11.2359,-4.366453 l -0.6514,-0.162406 0.15224,-0.270848 c 0.47966,-0.85334 1.33721,-1.808891 1.846,-2.056958 1.30797,-0.637726 6.50901,-0.9473926 17.53465,-1.0440023 3.0561,-0.026778 12.76789,0.035996 14.72799,0.095198 l 0.96151,0.029041 -0.27663,0.093403 c -0.32926,0.1111743 -0.56417,0.2910093 -0.86254,0.6603133 -0.83799,1.037208 -1.36582,2.362473 -3.20651,8.050953 -0.70156,2.168123 -1.60053,3.902253 -2.52831,4.877195 -0.53583,0.563068 -1.12494,0.950584 -2.02772,1.333834 -4.21749,1.79041 -13.36134,2.762591 -28.64181,3.04522 -3.59379,0.06647 -6.56283,0.101515 -6.56283,0.07746 z"
       id="path30"
       transform="matrix(0.26458333,0,0,0.26458333,71.727674,78.510883)" /><path
       style="opacity:0.9;fill:none;fill-opacity:1;stroke:none;stroke-width:0.000668132;stroke-dasharray:none;stroke-dashoffset:0"
       d="m 122.97029,27.983653 c 0,-0.01193 0.15057,-0.115538 0.33461,-0.230242 1.58159,-0.985763 3.1465,-2.435398 4.22483,-3.913627 1.22351,-1.677256 1.96206,-3.371515 2.90769,-6.670348 0.50369,-1.757132 0.68103,-2.315764 0.96102,-3.0273 0.13391,-0.340296 0.25058,-0.626327 0.25928,-0.635627 0.009,-0.0093 0.30982,0.05615 0.66918,0.145437 3.45213,0.857759 7.13029,2.222728 10.06673,3.73577 0.96148,0.495416 1.97739,1.073519 1.99866,1.137332 0.008,0.02386 -0.18592,0.08015 -0.43084,0.12509 -0.24492,0.04494 -0.45325,0.09456 -0.46296,0.110272 -0.0209,0.03384 3.24405,1.079623 3.27475,1.04892 0.0116,-0.01157 -0.48036,-0.610133 -1.09317,-1.330139 -0.61282,-0.720005 -1.12238,-1.300936 -1.13236,-1.290956 -0.01,0.01 0.0233,0.22142 0.074,0.469866 0.1154,0.565824 0.11617,0.55399 -0.0294,0.456941 -0.0668,-0.04456 -0.44968,-0.266568 -0.85074,-0.493342 -3.08207,-1.742709 -7.32363,-3.391047 -11.2359,-4.366453 l -0.6514,-0.162406 0.15224,-0.270848 c 0.47966,-0.85334 1.33721,-1.808891 1.846,-2.056958 1.30797,-0.637726 6.50901,-0.9473926 17.53465,-1.0440023 3.0561,-0.026778 12.76789,0.035996 14.72799,0.095198 l 0.96151,0.029041 -0.27663,0.093403 c -0.32926,0.1111743 -0.56417,0.2910093 -0.86254,0.6603133 -0.83799,1.037208 -1.36582,2.362473 -3.20651,8.050953 -0.70156,2.168123 -1.60053,3.902253 -2.52831,4.877195 -0.53583,0.563068 -1.12494,0.950584 -2.02772,1.333834 -4.21749,1.79041 -13.36134,2.762591 -28.64181,3.04522 -3.59379,0.06647 -6.56283,0.101515 -6.56283,0.07746 z"
       id="path31"
       transform="matrix(0.26458333,0,0,0.26458333,71.727674,78.510883)" /><path
       style="opacity:0.9;fill:none;fill-opacity:1;stroke:none;stroke-width:0.000668132;stroke-dasharray:none;stroke-dashoffset:0"
       d="m 122.97029,27.983653 c 0,-0.01193 0.15057,-0.115538 0.33461,-0.230242 1.58159,-0.985763 3.1465,-2.435398 4.22483,-3.913627 1.22351,-1.677256 1.96206,-3.371515 2.90769,-6.670348 0.50369,-1.757132 0.68103,-2.315764 0.96102,-3.0273 0.13391,-0.340296 0.25058,-0.626327 0.25928,-0.635627 0.009,-0.0093 0.30982,0.05615 0.66918,0.145437 3.45213,0.857759 7.13029,2.222728 10.06673,3.73577 0.96148,0.495416 1.97739,1.073519 1.99866,1.137332 0.008,0.02386 -0.18592,0.08015 -0.43084,0.12509 -0.24492,0.04494 -0.45325,0.09456 -0.46296,0.110272 -0.0209,0.03384 3.24405,1.079623 3.27475,1.04892 0.0116,-0.01157 -0.48036,-0.610133 -1.09317,-1.330139 -0.61282,-0.720005 -1.12238,-1.300936 -1.13236,-1.290956 -0.01,0.01 0.0233,0.22142 0.074,0.469866 0.1154,0.565824 0.11617,0.55399 -0.0294,0.456941 -0.0668,-0.04456 -0.44968,-0.266568 -0.85074,-0.493342 -3.08207,-1.742709 -7.32363,-3.391047 -11.2359,-4.366453 l -0.6514,-0.162406 0.15224,-0.270848 c 0.47966,-0.85334 1.33721,-1.808891 1.846,-2.056958 1.30797,-0.637726 6.50901,-0.9473926 17.53465,-1.0440023 3.0561,-0.026778 12.76789,0.035996 14.72799,0.095198 l 0.96151,0.029041 -0.27663,0.093403 c -0.32926,0.1111743 -0.56417,0.2910093 -0.86254,0.6603133 -0.83799,1.037208 -1.36582,2.362473 -3.20651,8.050953 -0.70156,2.168123 -1.60053,3.902253 -2.52831,4.877195 -0.53583,0.563068 -1.12494,0.950584 -2.02772,1.333834 -4.21749,1.79041 -13.36134,2.762591 -28.64181,3.04522 -3.59379,0.06647 -6.56283,0.101515 -6.56283,0.07746 z"
       id="path32"
       transform="matrix(0.26458333,0,0,0.26458333,71.727674,78.510883)" /><path
       style="opacity:0.9;fill:none;fill-opacity:1;stroke:none;stroke-width:0.000668132;stroke-dasharray:none;stroke-dashoffset:0"
       d="m 122.97029,27.983653 c 0,-0.01193 0.15057,-0.115538 0.33461,-0.230242 1.58159,-0.985763 3.1465,-2.435398 4.22483,-3.913627 1.22351,-1.677256 1.96206,-3.371515 2.90769,-6.670348 0.50369,-1.757132 0.68103,-2.315764 0.96102,-3.0273 0.13391,-0.340296 0.25058,-0.626327 0.25928,-0.635627 0.009,-0.0093 0.30982,0.05615 0.66918,0.145437 3.45213,0.857759 7.13029,2.222728 10.06673,3.73577 0.96148,0.495416 1.97739,1.073519 1.99866,1.137332 0.008,0.02386 -0.18592,0.08015 -0.43084,0.12509 -0.24492,0.04494 -0.45325,0.09456 -0.46296,0.110272 -0.0209,0.03384 3.24405,1.079623 3.27475,1.04892 0.0116,-0.01157 -0.48036,-0.610133 -1.09317,-1.330139 -0.61282,-0.720005 -1.12238,-1.300936 -1.13236,-1.290956 -0.01,0.01 0.0233,0.22142 0.074,0.469866 0.1154,0.565824 0.11617,0.55399 -0.0294,0.456941 -0.0668,-0.04456 -0.44968,-0.266568 -0.85074,-0.493342 -3.08207,-1.742709 -7.32363,-3.391047 -11.2359,-4.366453 l -0.6514,-0.162406 0.15224,-0.270848 c 0.47966,-0.85334 1.33721,-1.808891 1.846,-2.056958 1.30797,-0.637726 6.50901,-0.9473926 17.53465,-1.0440023 3.0561,-0.026778 12.76789,0.035996 14.72799,0.095198 l 0.96151,0.029041 -0.27663,0.093403 c -0.32926,0.1111743 -0.56417,0.2910093 -0.86254,0.6603133 -0.83799,1.037208 -1.36582,2.362473 -3.20651,8.050953 -0.70156,2.168123 -1.60053,3.902253 -2.52831,4.877195 -0.53583,0.563068 -1.12494,0.950584 -2.02772,1.333834 -4.21749,1.79041 -13.36134,2.762591 -28.64181,3.04522 -3.59379,0.06647 -6.56283,0.101515 -6.56283,0.07746 z"
       id="path33"
       transform="matrix(0.26458333,0,0,0.26458333,71.727674,78.510883)" /><path
       style="opacity:0.9;fill:none;fill-opacity:1;stroke:none;stroke-width:0.000668132;stroke-dasharray:none;stroke-dashoffset:0"
       d="m 122.97029,27.983653 c 0,-0.01193 0.15057,-0.115538 0.33461,-0.230242 1.58159,-0.985763 3.1465,-2.435398 4.22483,-3.913627 1.22351,-1.677256 1.96206,-3.371515 2.90769,-6.670348 0.50369,-1.757132 0.68103,-2.315764 0.96102,-3.0273 0.13391,-0.340296 0.25058,-0.626327 0.25928,-0.635627 0.009,-0.0093 0.30982,0.05615 0.66918,0.145437 3.45213,0.857759 7.13029,2.222728 10.06673,3.73577 0.96148,0.495416 1.97739,1.073519 1.99866,1.137332 0.008,0.02386 -0.18592,0.08015 -0.43084,0.12509 -0.24492,0.04494 -0.45325,0.09456 -0.46296,0.110272 -0.0209,0.03384 3.24405,1.079623 3.27475,1.04892 0.0116,-0.01157 -0.48036,-0.610133 -1.09317,-1.330139 -0.61282,-0.720005 -1.12238,-1.300936 -1.13236,-1.290956 -0.01,0.01 0.0233,0.22142 0.074,0.469866 0.1154,0.565824 0.11617,0.55399 -0.0294,0.456941 -0.0668,-0.04456 -0.44968,-0.266568 -0.85074,-0.493342 -3.08207,-1.742709 -7.32363,-3.391047 -11.2359,-4.366453 l -0.6514,-0.162406 0.15224,-0.270848 c 0.47966,-0.85334 1.33721,-1.808891 1.846,-2.056958 1.30797,-0.637726 6.50901,-0.9473926 17.53465,-1.0440023 3.0561,-0.026778 12.76789,0.035996 14.72799,0.095198 l 0.96151,0.029041 -0.27663,0.093403 c -0.32926,0.1111743 -0.56417,0.2910093 -0.86254,0.6603133 -0.83799,1.037208 -1.36582,2.362473 -3.20651,8.050953 -0.70156,2.168123 -1.60053,3.902253 -2.52831,4.877195 -0.53583,0.563068 -1.12494,0.950584 -2.02772,1.333834 -4.21749,1.79041 -13.36134,2.762591 -28.64181,3.04522 -3.59379,0.06647 -6.56283,0.101515 -6.56283,0.07746 z"
       id="path34"
       transform="matrix(0.26458333,0,0,0.26458333,71.727674,78.510883)" /><path
       style="opacity:0.9;fill:none;fill-opacity:1;stroke:none;stroke-width:0.000668132;stroke-dasharray:none;stroke-dashoffset:0"
       d="m 122.97029,27.983653 c 0,-0.01193 0.15057,-0.115538 0.33461,-0.230242 1.58159,-0.985763 3.1465,-2.435398 4.22483,-3.913627 1.22351,-1.677256 1.96206,-3.371515 2.90769,-6.670348 0.50369,-1.757132 0.68103,-2.315764 0.96102,-3.0273 0.13391,-0.340296 0.25058,-0.626327 0.25928,-0.635627 0.009,-0.0093 0.30982,0.05615 0.66918,0.145437 3.45213,0.857759 7.13029,2.222728 10.06673,3.73577 0.96148,0.495416 1.97739,1.073519 1.99866,1.137332 0.008,0.02386 -0.18592,0.08015 -0.43084,0.12509 -0.24492,0.04494 -0.45325,0.09456 -0.46296,0.110272 -0.0209,0.03384 3.24405,1.079623 3.27475,1.04892 0.0116,-0.01157 -0.48036,-0.610133 -1.09317,-1.330139 -0.61282,-0.720005 -1.12238,-1.300936 -1.13236,-1.290956 -0.01,0.01 0.0233,0.22142 0.074,0.469866 0.1154,0.565824 0.11617,0.55399 -0.0294,0.456941 -0.0668,-0.04456 -0.44968,-0.266568 -0.85074,-0.493342 -3.08207,-1.742709 -7.32363,-3.391047 -11.2359,-4.366453 l -0.6514,-0.162406 0.15224,-0.270848 c 0.47966,-0.85334 1.33721,-1.808891 1.846,-2.056958 1.30797,-0.637726 6.50901,-0.9473926 17.53465,-1.0440023 3.0561,-0.026778 12.76789,0.035996 14.72799,0.095198 l 0.96151,0.029041 -0.27663,0.093403 c -0.32926,0.1111743 -0.56417,0.2910093 -0.86254,0.6603133 -0.83799,1.037208 -1.36582,2.362473 -3.20651,8.050953 -0.70156,2.168123 -1.60053,3.902253 -2.52831,4.877195 -0.53583,0.563068 -1.12494,0.950584 -2.02772,1.333834 -4.21749,1.79041 -13.36134,2.762591 -28.64181,3.04522 -3.59379,0.06647 -6.56283,0.101515 -6.56283,0.07746 z"
       id="path35"
       transform="matrix(0.26458333,0,0,0.26458333,71.727674,78.510883)" /><path
       style="opacity:0.9;fill:none;fill-opacity:1;stroke:none;stroke-width:0.000668132;stroke-dasharray:none;stroke-dashoffset:0"
       d="m 122.97029,27.983653 c 0,-0.01193 0.15057,-0.115538 0.33461,-0.230242 1.58159,-0.985763 3.1465,-2.435398 4.22483,-3.913627 1.22351,-1.677256 1.96206,-3.371515 2.90769,-6.670348 0.50369,-1.757132 0.68103,-2.315764 0.96102,-3.0273 0.13391,-0.340296 0.25058,-0.626327 0.25928,-0.635627 0.009,-0.0093 0.30982,0.05615 0.66918,0.145437 3.45213,0.857759 7.13029,2.222728 10.06673,3.73577 0.96148,0.495416 1.97739,1.073519 1.99866,1.137332 0.008,0.02386 -0.18592,0.08015 -0.43084,0.12509 -0.24492,0.04494 -0.45325,0.09456 -0.46296,0.110272 -0.0209,0.03384 3.24405,1.079623 3.27475,1.04892 0.0116,-0.01157 -0.48036,-0.610133 -1.09317,-1.330139 -0.61282,-0.720005 -1.12238,-1.300936 -1.13236,-1.290956 -0.01,0.01 0.0233,0.22142 0.074,0.469866 0.1154,0.565824 0.11617,0.55399 -0.0294,0.456941 -0.0668,-0.04456 -0.44968,-0.266568 -0.85074,-0.493342 -3.08207,-1.742709 -7.32363,-3.391047 -11.2359,-4.366453 l -0.6514,-0.162406 0.15224,-0.270848 c 0.47966,-0.85334 1.33721,-1.808891 1.846,-2.056958 1.30797,-0.637726 6.50901,-0.9473926 17.53465,-1.0440023 3.0561,-0.026778 12.76789,0.035996 14.72799,0.095198 l 0.96151,0.029041 -0.27663,0.093403 c -0.32926,0.1111743 -0.56417,0.2910093 -0.86254,0.6603133 -0.83799,1.037208 -1.36582,2.362473 -3.20651,8.050953 -0.70156,2.168123 -1.60053,3.902253 -2.52831,4.877195 -0.53583,0.563068 -1.12494,0.950584 -2.02772,1.333834 -4.21749,1.79041 -13.36134,2.762591 -28.64181,3.04522 -3.59379,0.06647 -6.56283,0.101515 -6.56283,0.07746 z"
       id="path36"
       transform="matrix(0.26458333,0,0,0.26458333,71.727674,78.510883)" /><path
       style="opacity:0.9;fill:none;fill-opacity:1;stroke:none;stroke-width:0.000668132;stroke-dasharray:none;stroke-dashoffset:0"
       d="m 122.97029,27.983653 c 0,-0.01193 0.15057,-0.115538 0.33461,-0.230242 1.58159,-0.985763 3.1465,-2.435398 4.22483,-3.913627 1.22351,-1.677256 1.96206,-3.371515 2.90769,-6.670348 0.50369,-1.757132 0.68103,-2.315764 0.96102,-3.0273 0.13391,-0.340296 0.25058,-0.626327 0.25928,-0.635627 0.009,-0.0093 0.30982,0.05615 0.66918,0.145437 3.45213,0.857759 7.13029,2.222728 10.06673,3.73577 0.96148,0.495416 1.97739,1.073519 1.99866,1.137332 0.008,0.02386 -0.18592,0.08015 -0.43084,0.12509 -0.24492,0.04494 -0.45325,0.09456 -0.46296,0.110272 -0.0209,0.03384 3.24405,1.079623 3.27475,1.04892 0.0116,-0.01157 -0.48036,-0.610133 -1.09317,-1.330139 -0.61282,-0.720005 -1.12238,-1.300936 -1.13236,-1.290956 -0.01,0.01 0.0233,0.22142 0.074,0.469866 0.1154,0.565824 0.11617,0.55399 -0.0294,0.456941 -0.0668,-0.04456 -0.44968,-0.266568 -0.85074,-0.493342 -3.08207,-1.742709 -7.32363,-3.391047 -11.2359,-4.366453 l -0.6514,-0.162406 0.15224,-0.270848 c 0.47966,-0.85334 1.33721,-1.808891 1.846,-2.056958 1.30797,-0.637726 6.50901,-0.9473926 17.53465,-1.0440023 3.0561,-0.026778 12.76789,0.035996 14.72799,0.095198 l 0.96151,0.029041 -0.27663,0.093403 c -0.32926,0.1111743 -0.56417,0.2910093 -0.86254,0.6603133 -0.83799,1.037208 -1.36582,2.362473 -3.20651,8.050953 -0.70156,2.168123 -1.60053,3.902253 -2.52831,4.877195 -0.53583,0.563068 -1.12494,0.950584 -2.02772,1.333834 -4.21749,1.79041 -13.36134,2.762591 -28.64181,3.04522 -3.59379,0.06647 -6.56283,0.101515 -6.56283,0.07746 z"
       id="path37"
       transform="matrix(0.26458333,0,0,0.26458333,71.727674,78.510883)" /><path
       style="opacity:0.9;fill:none;fill-opacity:1;stroke:none;stroke-width:0.000668132;stroke-dasharray:none;stroke-dashoffset:0"
       d="m 122.97029,27.983653 c 0,-0.01193 0.15057,-0.115538 0.33461,-0.230242 1.58159,-0.985763 3.1465,-2.435398 4.22483,-3.913627 1.22351,-1.677256 1.96206,-3.371515 2.90769,-6.670348 0.50369,-1.757132 0.68103,-2.315764 0.96102,-3.0273 0.13391,-0.340296 0.25058,-0.626327 0.25928,-0.635627 0.009,-0.0093 0.30982,0.05615 0.66918,0.145437 3.45213,0.857759 7.13029,2.222728 10.06673,3.73577 0.96148,0.495416 1.97739,1.073519 1.99866,1.137332 0.008,0.02386 -0.18592,0.08015 -0.43084,0.12509 -0.24492,0.04494 -0.45325,0.09456 -0.46296,0.110272 -0.0209,0.03384 3.24405,1.079623 3.27475,1.04892 0.0116,-0.01157 -0.48036,-0.610133 -1.09317,-1.330139 -0.61282,-0.720005 -1.12238,-1.300936 -1.13236,-1.290956 -0.01,0.01 0.0233,0.22142 0.074,0.469866 0.1154,0.565824 0.11617,0.55399 -0.0294,0.456941 -0.0668,-0.04456 -0.44968,-0.266568 -0.85074,-0.493342 -3.08207,-1.742709 -7.32363,-3.391047 -11.2359,-4.366453 l -0.6514,-0.162406 0.15224,-0.270848 c 0.47966,-0.85334 1.33721,-1.808891 1.846,-2.056958 1.30797,-0.637726 6.50901,-0.9473926 17.53465,-1.0440023 3.0561,-0.026778 12.76789,0.035996 14.72799,0.095198 l 0.96151,0.029041 -0.27663,0.093403 c -0.32926,0.1111743 -0.56417,0.2910093 -0.86254,0.6603133 -0.83799,1.037208 -1.36582,2.362473 -3.20651,8.050953 -0.70156,2.168123 -1.60053,3.902253 -2.52831,4.877195 -0.53583,0.563068 -1.12494,0.950584 -2.02772,1.333834 -4.21749,1.79041 -13.36134,2.762591 -28.64181,3.04522 -3.59379,0.06647 -6.56283,0.101515 -6.56283,0.07746 z"
       id="path38"
       transform="matrix(0.26458333,0,0,0.26458333,71.727674,78.510883)" /><path
       style="opacity:0.9;fill:none;fill-opacity:1;stroke:none;stroke-width:0.000668132;stroke-dasharray:none;stroke-dashoffset:0"
       d="m 122.97029,27.983653 c 0,-0.01193 0.15057,-0.115538 0.33461,-0.230242 1.58159,-0.985763 3.1465,-2.435398 4.22483,-3.913627 1.22351,-1.677256 1.96206,-3.371515 2.90769,-6.670348 0.50369,-1.757132 0.68103,-2.315764 0.96102,-3.0273 0.13391,-0.340296 0.25058,-0.626327 0.25928,-0.635627 0.009,-0.0093 0.30982,0.05615 0.66918,0.145437 3.45213,0.857759 7.13029,2.222728 10.06673,3.73577 0.96148,0.495416 1.97739,1.073519 1.99866,1.137332 0.008,0.02386 -0.18592,0.08015 -0.43084,0.12509 -0.24492,0.04494 -0.45325,0.09456 -0.46296,0.110272 -0.0209,0.03384 3.24405,1.079623 3.27475,1.04892 0.0116,-0.01157 -0.48036,-0.610133 -1.09317,-1.330139 -0.61282,-0.720005 -1.12238,-1.300936 -1.13236,-1.290956 -0.01,0.01 0.0233,0.22142 0.074,0.469866 0.1154,0.565824 0.11617,0.55399 -0.0294,0.456941 -0.0668,-0.04456 -0.44968,-0.266568 -0.85074,-0.493342 -3.08207,-1.742709 -7.32363,-3.391047 -11.2359,-4.366453 l -0.6514,-0.162406 0.15224,-0.270848 c 0.47966,-0.85334 1.33721,-1.808891 1.846,-2.056958 1.30797,-0.637726 6.50901,-0.9473926 17.53465,-1.0440023 3.0561,-0.026778 12.76789,0.035996 14.72799,0.095198 l 0.96151,0.029041 -0.27663,0.093403 c -0.32926,0.1111743 -0.56417,0.2910093 -0.86254,0.6603133 -0.83799,1.037208 -1.36582,2.362473 -3.20651,8.050953 -0.70156,2.168123 -1.60053,3.902253 -2.52831,4.877195 -0.53583,0.563068 -1.12494,0.950584 -2.02772,1.333834 -4.21749,1.79041 -13.36134,2.762591 -28.64181,3.04522 -3.59379,0.06647 -6.56283,0.101515 -6.56283,0.07746 z"
       id="path39"
       transform="matrix(0.26458333,0,0,0.26458333,71.727674,78.510883)" /><path
       style="opacity:0.9;fill:none;fill-opacity:1;stroke:none;stroke-width:0.000668132;stroke-dasharray:none;stroke-dashoffset:0"
       d="m 122.97029,27.983653 c 0,-0.01193 0.15057,-0.115538 0.33461,-0.230242 1.58159,-0.985763 3.1465,-2.435398 4.22483,-3.913627 1.22351,-1.677256 1.96206,-3.371515 2.90769,-6.670348 0.50369,-1.757132 0.68103,-2.315764 0.96102,-3.0273 0.13391,-0.340296 0.25058,-0.626327 0.25928,-0.635627 0.009,-0.0093 0.30982,0.05615 0.66918,0.145437 3.45213,0.857759 7.13029,2.222728 10.06673,3.73577 0.96148,0.495416 1.97739,1.073519 1.99866,1.137332 0.008,0.02386 -0.18592,0.08015 -0.43084,0.12509 -0.24492,0.04494 -0.45325,0.09456 -0.46296,0.110272 -0.0209,0.03384 3.24405,1.079623 3.27475,1.04892 0.0116,-0.01157 -0.48036,-0.610133 -1.09317,-1.330139 -0.61282,-0.720005 -1.12238,-1.300936 -1.13236,-1.290956 -0.01,0.01 0.0233,0.22142 0.074,0.469866 0.1154,0.565824 0.11617,0.55399 -0.0294,0.456941 -0.0668,-0.04456 -0.44968,-0.266568 -0.85074,-0.493342 -3.08207,-1.742709 -7.32363,-3.391047 -11.2359,-4.366453 l -0.6514,-0.162406 0.15224,-0.270848 c 0.47966,-0.85334 1.33721,-1.808891 1.846,-2.056958 1.30797,-0.637726 6.50901,-0.9473926 17.53465,-1.0440023 3.0561,-0.026778 12.76789,0.035996 14.72799,0.095198 l 0.96151,0.029041 -0.27663,0.093403 c -0.32926,0.1111743 -0.56417,0.2910093 -0.86254,0.6603133 -0.83799,1.037208 -1.36582,2.362473 -3.20651,8.050953 -0.70156,2.168123 -1.60053,3.902253 -2.52831,4.877195 -0.53583,0.563068 -1.12494,0.950584 -2.02772,1.333834 -4.21749,1.79041 -13.36134,2.762591 -28.64181,3.04522 -3.59379,0.06647 -6.56283,0.101515 -6.56283,0.07746 z"
       id="path40"
       transform="matrix(0.26458333,0,0,0.26458333,71.727674,78.510883)" /><path
       style="opacity:0.9;fill:none;fill-opacity:1;stroke:none;stroke-width:0.000668132;stroke-dasharray:none;stroke-dashoffset:0"
       d="m 122.97029,27.983653 c 0,-0.01193 0.15057,-0.115538 0.33461,-0.230242 1.58159,-0.985763 3.1465,-2.435398 4.22483,-3.913627 1.22351,-1.677256 1.96206,-3.371515 2.90769,-6.670348 0.50369,-1.757132 0.68103,-2.315764 0.96102,-3.0273 0.13391,-0.340296 0.25058,-0.626327 0.25928,-0.635627 0.009,-0.0093 0.30982,0.05615 0.66918,0.145437 3.45213,0.857759 7.13029,2.222728 10.06673,3.73577 0.96148,0.495416 1.97739,1.073519 1.99866,1.137332 0.008,0.02386 -0.18592,0.08015 -0.43084,0.12509 -0.24492,0.04494 -0.45325,0.09456 -0.46296,0.110272 -0.0209,0.03384 3.24405,1.079623 3.27475,1.04892 0.0116,-0.01157 -0.48036,-0.610133 -1.09317,-1.330139 -0.61282,-0.720005 -1.12238,-1.300936 -1.13236,-1.290956 -0.01,0.01 0.0233,0.22142 0.074,0.469866 0.1154,0.565824 0.11617,0.55399 -0.0294,0.456941 -0.0668,-0.04456 -0.44968,-0.266568 -0.85074,-0.493342 -3.08207,-1.742709 -7.32363,-3.391047 -11.2359,-4.366453 l -0.6514,-0.162406 0.15224,-0.270848 c 0.47966,-0.85334 1.33721,-1.808891 1.846,-2.056958 1.30797,-0.637726 6.50901,-0.9473926 17.53465,-1.0440023 3.0561,-0.026778 12.76789,0.035996 14.72799,0.095198 l 0.96151,0.029041 -0.27663,0.093403 c -0.32926,0.1111743 -0.56417,0.2910093 -0.86254,0.6603133 -0.83799,1.037208 -1.36582,2.362473 -3.20651,8.050953 -0.70156,2.168123 -1.60053,3.902253 -2.52831,4.877195 -0.53583,0.563068 -1.12494,0.950584 -2.02772,1.333834 -4.21749,1.79041 -13.36134,2.762591 -28.64181,3.04522 -3.59379,0.06647 -6.56283,0.101515 -6.56283,0.07746 z"
       id="path41"
       transform="matrix(0.26458333,0,0,0.26458333,71.727674,78.510883)" /><path
       style="opacity:0.3;fill:#ed3d3d;fill-opacity:1;stroke:none;stroke-width:0.000472441;stroke-dasharray:none;stroke-dashoffset:0"
       d="m 173.79687,16.911321 c 0,-0.011 0.0645,-0.10487 0.14344,-0.208604 0.54067,-0.71094 1.08884,-1.819886 1.37176,-2.775106 0.26303,-0.888059 0.35739,-1.573739 0.38141,-2.771361 0.0221,-1.100636 -0.01,-1.498531 -0.16346,-2.032782 -0.0181,-0.062858 4e-4,-0.065023 1.00704,-0.1181074 5.08107,-0.2679447 10.76029,-0.4582472 17.40044,-0.5830641 2.75479,-0.051782 7.25192,-0.098543 8.49156,-0.088294 l 1.17905,0.00975 -0.26033,0.53125 c -1.24333,2.5372535 -3.07131,4.5103205 -5.13303,5.5404375 -0.68449,0.341999 -0.87125,0.400797 -1.70844,0.537877 -5.16923,0.846396 -12.81475,1.554489 -20.39694,1.889073 -1.56129,0.0689 -2.3125,0.09129 -2.3125,0.06893 z"
       id="path47"
       transform="matrix(0.26458333,0,0,0.26458333,71.727674,78.510883)" /><path
       style="opacity:0.3;fill:#da7a7a;fill-opacity:1;stroke:none;stroke-width:0.000944882;stroke-dasharray:none;stroke-dashoffset:0"
       d="m 169.46875,20.005889 c 1.53093,-0.528019 3.10686,-1.586758 3.99948,-2.686937 l 0.31892,-0.393075 1.38768,-0.0416 c 0.76322,-0.02288 1.59861,-0.05592 1.85642,-0.07342 0.25781,-0.0175 1.24219,-0.07424 2.1875,-0.126072 3.41995,-0.187536 6.20308,-0.406576 9.90625,-0.779649 2.9672,-0.298929 6.69599,-0.788702 7.84538,-1.030483 1.43715,-0.302315 3.32964,-1.634625 4.66788,-3.286179 0.54383,-0.671155 1.21402,-1.7192246 1.63027,-2.5494943 l 0.35647,-0.7110153 6.40625,0.045336 c 3.52344,0.024935 6.63125,0.063642 6.90625,0.086015 l 0.5,0.040679 -2.1875,2.1909366 c -2.93724,2.941858 -4.83927,4.581904 -6.91742,5.964639 -0.95804,0.637454 -2.04946,1.227447 -2.58258,1.39608 -0.76207,0.241054 -4.71903,0.705276 -8.59375,1.0082 -5.16867,0.404085 -12.48558,0.760647 -19.9375,0.971579 -3.40056,0.09626 -7.2771,0.186527 -7.84375,0.182655 l -0.5,-0.0034 z"
       id="path48"
       transform="matrix(0.26458333,0,0,0.26458333,71.727674,78.510883)" /><path
       style="fill:none;stroke:#000000;stroke-width:0.1;stroke-linecap:butt;stroke-linejoin:miter;stroke-dasharray:none;stroke-opacity:1;marker-end:url(#marker53)"
       d="m 114.40513,84.347767 h -2.42484"
       id="path52"
       sodipodi:nodetypes="cc" /><text
       xml:space="preserve"
       style="font-size:1.41111px;line-height:1.25;font-family:'CMU Sans Serif';-inkscape-font-specification:'CMU Sans Serif, Normal';stroke-width:0.264583"
       x="111.44542"
       y="81.099022"
       id="text53"><tspan
         sodipodi:role="line"
         id="tspan53"
         style="stroke-width:0.264583"
         x="111.44542"
         y="81.099022">\footnotesize $\mathbf{v}_{dep}$</tspan></text><path
       style="fill:none;stroke:#000000;stroke-width:0.1;stroke-linecap:butt;stroke-linejoin:miter;stroke-dasharray:none;stroke-opacity:1;marker-end:url(#marker53)"
       d="m 114.86168,83.233223 h -2.42484"
       id="path54"
       sodipodi:nodetypes="cc" /><path
       style="fill:none;stroke:#000000;stroke-width:0.1;stroke-linecap:butt;stroke-linejoin:miter;stroke-dasharray:none;stroke-opacity:1;marker-end:url(#marker53)"
       d="m 115.29163,81.970646 h -2.42484"
       id="path55"
       sodipodi:nodetypes="cc" /><path
       style="opacity:0.6;fill:none;stroke:#ff0000;stroke-width:0.065;stroke-linecap:butt;stroke-linejoin:miter;stroke-dasharray:none;stroke-opacity:1;marker-end:url(#ConcaveTriangle)"
       d="m 86.965839,92.546692 c 0,0 -0.877486,-0.04902 -0.895025,-0.516743 -0.01754,-0.467721 -0.333435,-0.53698 -0.895025,-0.516743 -0.56159,0.02024 -0.83865,-0.07513 -0.895026,-0.516743 -0.05638,-0.441616 -0.448541,-0.119868 -0.895025,-0.516743"
       id="path56"
       sodipodi:nodetypes="czzzc" /><path
       style="fill:none;stroke:#000000;stroke-width:0.1;stroke-linecap:butt;stroke-linejoin:miter;stroke-dasharray:none;stroke-opacity:1;marker-start:url(#DartArrow)"
       d="m 116.24457,81.139164 c 0,0 0.52806,-5.05833 5.97121,-6.597285 5.51636,-1.800526 6.11872,-7.088392 6.11872,-7.088392"
       id="path58"
       sodipodi:nodetypes="ccc" /><text
       xml:space="preserve"
       style="font-size:1.41111px;line-height:1.25;font-family:'CMU Sans Serif';-inkscape-font-specification:'CMU Sans Serif, Normal';stroke-width:0.264583"
       x="126.43891"
       y="66.808647"
       id="text58"><tspan
         sodipodi:role="line"
         id="tspan58"
         style="stroke-width:0.264583"
         x="126.43891"
         y="66.808647">\footnotesize Heat source</tspan></text><path
       style="opacity:0.6;fill:none;stroke:#ff0000;stroke-width:0.065;stroke-linecap:butt;stroke-linejoin:miter;stroke-dasharray:none;stroke-opacity:1;marker-end:url(#DartArrow)"
       d="m 88.558422,85.940062 c 0,0 -1.586357,0.09355 -1.572715,-1.227769 0.01364,-1.321314 -0.765894,-0.08185 -1.572714,-1.227769"
       id="path59"
       sodipodi:nodetypes="czc" /><path
       style="opacity:0.6;fill:none;stroke:#ff0000;stroke-width:0.065;stroke-linecap:butt;stroke-linejoin:miter;stroke-dasharray:none;stroke-opacity:1;marker-end:url(#DartArrow)"
       d="m 94.746641,84.964678 c 0,0 -0.431008,-0.968077 -0.331974,-1.142693 0.09903,-0.174616 -0.123086,-0.187656 -0.168272,-0.902694"
       id="path60"
       sodipodi:nodetypes="czc" /><path
       style="opacity:0.6;fill:none;stroke:#ff0000;stroke-width:0.065;stroke-linecap:butt;stroke-linejoin:miter;stroke-dasharray:none;stroke-opacity:1;marker-end:url(#DartArrow)"
       d="m 102.70201,84.985515 c 0,0 -0.0632,-0.739331 -0.33191,-1.246059 -0.26867,-0.506728 0.065,-0.528143 0.0965,-1.243914"
       id="path61"
       sodipodi:nodetypes="czc" /><path
       style="opacity:0.6;fill:none;stroke:#ff0000;stroke-width:0.065;stroke-linecap:butt;stroke-linejoin:miter;stroke-dasharray:none;stroke-opacity:1;marker-end:url(#DartArrow)"
       d="m 110.04364,84.851266 c 0,0 -0.63016,-0.507076 -0.40449,-1.119085 0.22566,-0.612002 -0.16082,-0.583691 -0.25174,-1.294362"
       id="path62"
       sodipodi:nodetypes="czc" /><path
       style="opacity:0.6;fill:none;stroke:#ff0000;stroke-width:0.065;stroke-linecap:butt;stroke-linejoin:miter;stroke-dasharray:none;stroke-opacity:1;marker-end:url(#DartArrow)"
       d="m 120.86945,79.784851 c 0,0 -0.50469,-0.632071 -0.15123,-1.180292 0.35345,-0.548218 -0.0299,-0.604701 0.036,-1.318126"
       id="path63"
       sodipodi:nodetypes="czc" /><path
       style="opacity:0.6;fill:none;stroke:#ff0000;stroke-width:0.065;stroke-linecap:butt;stroke-linejoin:miter;stroke-dasharray:none;stroke-opacity:1;marker-end:url(#DartArrow)"
       d="m 129.70546,79.550968 c 0,0 0.0767,-0.592185 -0.27419,-1.15792 -0.35091,-0.565735 -0.17326,-0.730521 -0.0694,-1.422118"
       id="path64"
       sodipodi:nodetypes="czc" /><path
       style="opacity:0.6;fill:none;stroke:#ff0000;stroke-width:0.065;stroke-linecap:butt;stroke-linejoin:miter;stroke-dasharray:none;stroke-opacity:1;marker-end:url(#DartArrow)"
       d="m 135.12616,80.503709 c 0,0 0.62754,-0.336129 0.69209,-0.988673 0.0645,-0.652544 0.44127,-0.402199 0.99213,-0.860319"
       id="path65"
       sodipodi:nodetypes="czc" /><path
       style="opacity:0.6;fill:none;stroke:#ff0000;stroke-width:0.065;stroke-linecap:butt;stroke-linejoin:miter;stroke-dasharray:none;stroke-opacity:1;marker-end:url(#DartArrow)"
       d="m 135.95285,86.272297 c 0,0 0.44776,-0.673603 1.0777,-0.504493 0.62998,0.169125 0.56666,-0.2132 1.26614,-0.368304"
       id="path66"
       sodipodi:nodetypes="czc" /><path
       style="opacity:0.6;fill:none;stroke:#ff0000;stroke-width:0.065;stroke-linecap:butt;stroke-linejoin:miter;stroke-dasharray:none;stroke-opacity:1;marker-end:url(#DartArrow)"
       d="m 137.82333,93.032344 c 0,0 0.26354,-0.764706 0.91577,-0.759808 0.65227,0.0049 0.49465,-0.349125 1.13246,-0.675501"
       id="path68"
       sodipodi:nodetypes="czc" /><text
       xml:space="preserve"
       style="font-size:1.41111px;line-height:1.25;font-family:'CMU Sans Serif';-inkscape-font-specification:'CMU Sans Serif, Normal';stroke-width:0.264583"
       x="133.99883"
       y="77.058769"
       id="text69"><tspan
         sodipodi:role="line"
         style="stroke-width:0.264583"
         x="133.99883"
         y="77.058769"
         id="tspan70">\color{red}{\footnotesize Convective / radiative heat loss}</tspan></text><path
       style="opacity:0.3;fill:#c8b7b7;fill-opacity:1;stroke:none;stroke-width:0.0108572"
       d="m 123.47852,42.447796 c 2.41545,-1.598537 4.08373,-3.443231 5.27512,-5.832923 0.65049,-1.304748 1.04883,-2.408546 1.73045,-4.795068 0.18744,-0.656283 0.34718,-1.200247 0.35498,-1.208809 0.0257,-0.02816 1.69532,0.656055 2.53421,1.038493 1.15187,0.525124 3.1307,1.568626 3.20616,1.690713 0.0112,0.0182 -0.17248,0.06889 -0.40829,0.112626 -0.23581,0.04374 -0.45436,0.09317 -0.48566,0.109831 -0.0518,0.02755 0.3248,0.155946 2.54502,0.867751 0.39619,0.127018 0.71405,0.212054 0.70635,0.18897 -0.0231,-0.06926 -2.21413,-2.64558 -2.23349,-2.626224 -0.01,0.0098 0.0251,0.230137 0.0776,0.489562 0.0525,0.259424 0.0889,0.47767 0.0809,0.484992 -0.008,0.0073 -0.25324,-0.126605 -0.54492,-0.297616 -1.15318,-0.676102 -2.93781,-1.529105 -4.5299,-2.165174 -0.42537,-0.169942 -0.78228,-0.317094 -0.79313,-0.327006 -0.0319,-0.02911 0.20944,-0.74162 0.46919,-1.38541 0.42499,-1.053317 0.91038,-1.847915 1.52635,-2.49864 0.44107,-0.465964 0.75586,-0.706607 1.06215,-0.811987 1.50892,-0.519147 6.66285,-0.842746 14.59551,-0.916407 l 3.0494,-0.02832 0.21682,0.636122 c 0.11925,0.349867 0.23604,0.660981 0.25953,0.691364 0.064,0.08278 0.24371,0.06652 0.29352,-0.02656 0.033,-0.06175 -0.004,-0.223732 -0.15312,-0.660782 -0.1083,-0.318439 -0.1969,-0.592943 -0.1969,-0.610009 0,-0.01707 0.36791,-0.01944 0.81759,-0.0053 0.49247,0.01552 0.81759,0.0094 0.81759,-0.0153 0,-0.07166 1.3551,-0.05104 1.49789,0.02279 0.21311,0.110205 0.53664,0.129404 0.82511,0.04897 0.21573,-0.06016 0.41945,-0.07003 1.14624,-0.05555 0.54337,0.01083 0.97416,0.04078 1.1182,0.07775 0.20647,0.053 0.26949,0.05113 0.53033,-0.01571 0.41967,-0.107548 1.57285,-0.107586 1.79834,-5.9e-5 0.14017,0.06684 0.18993,0.06874 0.45449,0.0173 0.35663,-0.06933 4.19629,-0.06756 4.51664,0.0021 0.10883,0.02366 0.32058,0.02988 0.47055,0.01382 l 0.27267,-0.0292 0.0278,0.126655 c 0.0246,0.111888 -0.006,0.160923 -0.25894,0.420547 -0.46722,0.478851 -0.93631,1.276684 -1.34674,2.290551 -0.0738,0.182301 -0.13473,0.306597 -0.13541,0.276214 -9.7e-4,-0.04382 -0.92608,-0.05524 -4.47491,-0.05524 h -4.47369 l 0.3737,-0.375651 c 0.20554,-0.206607 0.34863,-0.37565 0.31798,-0.37565 -0.0632,0 -3.12072,0.866105 -3.25689,0.922564 l -0.0884,0.03665 0.0884,0.02656 c 0.59586,0.179052 3.21513,0.914576 3.25689,0.914576 0.0307,0 -0.11244,-0.169042 -0.31798,-0.37565 l -0.3737,-0.375651 h 4.4074 c 2.42406,0 4.40739,0.005 4.40738,0.01105 0,0.0061 -0.099,0.279528 -0.22005,0.60767 -0.12103,0.328142 -0.45414,1.307476 -0.74025,2.176298 l -0.5202,1.579677 -4.48473,2.65e-4 -4.48473,2.65e-4 0.3737,-0.375651 c 0.20553,-0.206608 0.35234,-0.37565 0.32623,-0.37565 -0.0621,0 -3.10572,0.870949 -3.22095,0.921685 -0.10101,0.04447 -0.19803,0.01301 1.85068,0.600219 0.72619,0.208145 1.34226,0.378445 1.36904,0.378445 0.0268,0 -0.11947,-0.169043 -0.325,-0.37565 l -0.3737,-0.375651 h 4.40739 c 3.65984,0 4.40739,0.01007 4.40739,0.05937 0,0.121114 -0.57338,1.748539 -0.79655,2.260825 -0.32805,0.753062 -0.76015,1.600896 -0.78269,1.535748 -0.0151,-0.0437 -0.94834,-0.05524 -4.46695,-0.05524 h -4.44785 l 0.35016,-0.352227 c 0.19259,-0.193724 0.33999,-0.362399 0.32756,-0.374833 -0.0285,-0.02846 -3.30943,0.906817 -3.3091,0.943298 2.9e-4,0.0329 3.28432,0.972837 3.31196,0.947938 0.0109,-0.0098 -0.13783,-0.176283 -0.33042,-0.370007 l -0.35016,-0.352227 h 4.36564 4.36563 l -0.0798,0.136286 c -0.18472,0.315315 -0.77672,1.057921 -1.03884,1.303123 -2.31976,2.170023 -9.69845,3.432925 -23.21522,3.973406 -3.11764,0.124662 -6.97667,0.215602 -11.46838,0.270259 l -2.40859,0.02931 z m 21.36674,-3.66614 c 0.0768,-0.08488 0.0682,-0.09837 -0.33566,-0.52538 -0.84707,-0.895633 -1.25297,-1.783355 -1.24558,-2.72416 0.003,-0.394783 0.0235,-0.503249 0.1909,-1.016466 0.15832,-0.485315 0.19084,-0.647677 0.2094,-1.045634 0.0275,-0.590592 -0.0433,-0.846981 -0.45195,-1.636372 -0.3302,-0.637817 -0.46535,-0.975706 -0.5979,-1.494843 -0.12894,-0.505013 -0.11394,-0.532529 0.16786,-0.307907 0.12872,0.102597 0.24155,0.179026 0.25073,0.169843 0.0184,-0.01841 -0.82628,-2.007561 -0.87187,-2.053153 -0.0395,-0.03947 -0.0581,0.05695 -0.21006,1.086862 -0.0735,0.498289 -0.14361,0.950727 -0.15578,1.005417 -0.0352,0.158036 0.036,0.116905 0.21683,-0.12526 0.0923,-0.123584 0.17765,-0.2148 0.18975,-0.202704 0.0121,0.0121 0.0586,0.189321 0.10325,0.39383 0.10816,0.494952 0.32159,1.036299 0.69331,1.758511 0.45886,0.891529 0.50477,1.260341 0.25838,2.075759 -0.27792,0.919762 -0.30144,1.052372 -0.27814,1.568009 0.0352,0.779336 0.30087,1.463423 0.867,2.23269 0.26639,0.36198 0.79948,0.928078 0.87397,0.928078 0.0257,0 0.0822,-0.0392 0.12556,-0.08712 z"
       id="path1"
       transform="matrix(0.26458333,0,0,0.26458333,71.727674,74.592086)" /><path
       d="m 115.71826,81.244127 c -0.65756,0.47876 -0.76814,2.50665 -1.59755,3.539068 -0.12064,0.150163 -0.37883,0.258096 -0.84477,0.407497"
       style="fill:none;stroke:#000000;stroke-width:0.3;stroke-dasharray:none"
       id="path16"
       sodipodi:nodetypes="csc" /><text
       xml:space="preserve"
       style="font-size:1.41111px;line-height:1.25;font-family:'CMU Sans Serif';-inkscape-font-specification:'CMU Sans Serif, Normal';stroke-width:0.264583"
       x="114.10475"
       y="86.180542"
       id="text16"><tspan
         sodipodi:role="line"
         id="tspan16"
         style="stroke-width:0.264583"
         x="114.10475"
         y="86.180542">\footnotesize $\Gamma_{dep}$</tspan></text><text
       xml:space="preserve"
       style="font-size:1.41111px;line-height:1.25;font-family:'CMU Sans Serif';-inkscape-font-specification:'CMU Sans Serif, Normal';stroke-width:0.264583"
       x="75.959511"
       y="100.88881"
       id="text1"><tspan
         sodipodi:role="line"
         id="tspan1"
         style="stroke-width:0.264583"
         x="75.959511"
         y="100.88881">\footnotesize Substrate</tspan></text><text
       xml:space="preserve"
       style="font-size:1.41111px;line-height:1.25;font-family:'CMU Sans Serif';-inkscape-font-specification:'CMU Sans Serif, Normal';stroke-width:0.264583"
       x="106.98545"
       y="92.336929"
       id="text2"><tspan
         sodipodi:role="line"
         id="tspan2"
         style="stroke-width:0.264583"
         x="106.98545"
         y="92.336929">\footnotesize Part</tspan></text><path
       id="path42"
       style="opacity:0.85;mix-blend-mode:normal;fill:#333333;fill-opacity:1;stroke-width:0.0237718;filter:url(#filter422)"
       d="m 92.192944,149.65166 c 0,0.0538 -0.0298,0.0803 -0.0949,0.0786 -0.0806,-0.0289 -0.094,-0.0127 -0.11663,-0.0786 0.0227,-0.0538 0.0656,-0.11182 0.13961,-0.0702 0.035,0.0197 0.0719,0.0164 0.0719,0.0702 z"
       sodipodi:nodetypes="sccss" /><path
       id="path370"
       style="opacity:0.85;fill:#5c4d40;fill-opacity:1;stroke-width:0.0220561;filter:url(#filter421)"
       d="m 91.958894,149.18911 c 0,0 -0.0114,0.0844 -0.0817,0.0786 -0.0507,8e-5 -0.0739,0.0421 -0.1004,-0.0786 0.0124,-0.061 0.0455,-0.0707 0.0668,-0.0774 0.0554,-0.0101 0.11349,-0.0135 0.11528,0.0774 0.0507,0.10439 1e-5,0 1e-5,0 z"
       sodipodi:nodetypes="cccccc" /><g
       id="g1332"
       transform="translate(5.7535922,-55.100581)"><path
         id="path23"
         style="opacity:0.372492;fill:url(#radialGradient26);stroke-width:0.180296"
         d="m 112.1879,124.09261 c 0,0 -0.93715,0.49551 -2.39969,0.49551 -1.46255,0 -2.64818,-0.49551 -2.64818,-0.49551 0,0 1.18563,-0.49551 2.64818,-0.49551 1.46254,0 2.39969,0.49551 2.39969,0.49551 z"
         sodipodi:nodetypes="cscsc" /><path
         style="fill:url(#linearGradient18);fill-opacity:1;stroke:none;stroke-width:0.335966"
         id="path17"
         sodipodi:type="arc"
         sodipodi:cx="109.69405"
         sodipodi:cy="135.67262"
         sodipodi:rx="9.7519779"
         sodipodi:ry="12"
         sodipodi:start="4.4505896"
         sodipodi:end="4.9741884"
         sodipodi:arc-type="slice"
         d="m 107.17006,124.08151 a 9.7519779,12 0 0 1 5.04799,0 l -2.524,11.59111 z" /><path
         id="path22"
         style="fill:#4d4d4d;stroke-width:0.0107279"
         d="m 101.03728,116.14581 3.52303,7.9468 h 2.57972 l 0.0601,-0.0222 c 0.26858,-0.0995 0.95635,-0.23957 1.41735,-0.28887 0.28766,-0.0308 0.68271,-0.0481 1.04653,-0.0501 0.36382,0.002 0.75887,0.0193 1.04653,0.0501 0.461,0.0493 1.14877,0.18937 1.41735,0.28887 l 0.0601,0.0222 h 2.64346 l 3.52303,-7.94678 h -8.69043 z"
         sodipodi:nodetypes="ccccccccccccc" /><path
         style="fill:#4d4d4d;fill-opacity:1;stroke:none;stroke-width:0.264583px;stroke-linecap:butt;stroke-linejoin:miter;stroke-opacity:1"
         d="m 103.25373,124.09261 h -0.93361 l -4.398696,-7.9468 h 1.385289 z"
         id="path28"
         sodipodi:nodetypes="ccccc" /><g
         id="g973"><path
           id="path27"
           style="fill:url(#linearGradient421);fill-opacity:1;stroke:none;stroke-width:0.264583px;stroke-linecap:butt;stroke-linejoin:miter;stroke-opacity:1"
           d="m 109.00528,135.67262 -9.698566,-19.52681 h 1.730566 l 8.65677,19.52681 z"
           sodipodi:nodetypes="ccccc" /><use
           id="use316"
           inkscape:spray-origin="#path42"
           xlink:href="#path42"
           transform="translate(16.420799,-15.452989)" /><use
           id="use317"
           inkscape:spray-origin="#path42"
           xlink:href="#path42"
           transform="translate(17.021276,-13.931203)" /><use
           id="use318"
           inkscape:spray-origin="#path42"
           xlink:href="#path42"
           transform="translate(17.404229,-14.561921)" /><use
           id="use319"
           inkscape:spray-origin="#path42"
           xlink:href="#path42"
           transform="translate(16.806718,-15.957026)" /><use
           id="use320"
           inkscape:spray-origin="#path42"
           xlink:href="#path42"
           transform="translate(16.315034,-16.255325)" /><use
           id="use321"
           inkscape:spray-origin="#path42"
           xlink:href="#path42"
           transform="translate(17.097701,-14.893662)" /><use
           id="use322"
           inkscape:spray-origin="#path42"
           xlink:href="#path42"
           transform="translate(16.173738,-17.216703)" /><use
           id="use323"
           inkscape:spray-origin="#path42"
           xlink:href="#path42"
           transform="translate(15.579587,-16.630502)" /><use
           id="use324"
           inkscape:spray-origin="#path42"
           xlink:href="#path42"
           transform="translate(15.031298,-18.098241)" /><use
           id="use325"
           inkscape:spray-origin="#path42"
           xlink:href="#path42"
           transform="translate(14.87353,-18.879136)" /><use
           id="use326"
           inkscape:spray-origin="#path42"
           xlink:href="#path42"
           transform="translate(15.262747,-17.38764)" /><use
           id="use327"
           inkscape:spray-origin="#path42"
           xlink:href="#path42"
           transform="translate(15.051217,-17.550702)" /><use
           id="use328"
           inkscape:spray-origin="#path42"
           xlink:href="#path42"
           transform="translate(14.241884,-19.160145)" /><use
           id="use329"
           inkscape:spray-origin="#path42"
           xlink:href="#path42"
           transform="translate(14.316646,-19.99053)" /><use
           id="use330"
           inkscape:spray-origin="#path42"
           xlink:href="#path42"
           transform="translate(15.120002,-19.745116)" /><use
           id="use331"
           inkscape:spray-origin="#path42"
           xlink:href="#path42"
           transform="translate(14.503921,-19.671258)" /><use
           id="use332"
           inkscape:spray-origin="#path42"
           xlink:href="#path42"
           transform="translate(14.223463,-20.943317)" /><use
           id="use333"
           inkscape:spray-origin="#path42"
           xlink:href="#path42"
           transform="translate(14.20471,-19.605853)" /><use
           id="use334"
           inkscape:spray-origin="#path42"
           xlink:href="#path42"
           transform="translate(14.60993,-21.115735)" /><use
           id="use335"
           inkscape:spray-origin="#path42"
           xlink:href="#path42"
           transform="translate(13.70413,-20.498846)" /><use
           id="use336"
           inkscape:spray-origin="#path42"
           xlink:href="#path42"
           transform="translate(14.623301,-20.974257)" /><use
           id="use337"
           inkscape:spray-origin="#path42"
           xlink:href="#path42"
           transform="translate(13.094383,-21.491819)" /><use
           id="use338"
           inkscape:spray-origin="#path42"
           xlink:href="#path42"
           transform="translate(12.56719,-23.349645)" /><use
           id="use339"
           inkscape:spray-origin="#path42"
           xlink:href="#path42"
           transform="translate(13.776589,-21.413596)" /><use
           id="use340"
           inkscape:spray-origin="#path42"
           xlink:href="#path42"
           transform="translate(13.423134,-22.085799)" /><use
           id="use341"
           inkscape:spray-origin="#path42"
           xlink:href="#path42"
           transform="translate(13.70462,-22.848498)" /><use
           id="use342"
           inkscape:spray-origin="#path42"
           xlink:href="#path42"
           transform="translate(13.182755,-22.569945)" /><use
           id="use343"
           inkscape:spray-origin="#path42"
           xlink:href="#path42"
           transform="translate(12.819023,-24.821863)" /><use
           id="use344"
           inkscape:spray-origin="#path42"
           xlink:href="#path42"
           transform="translate(12.413203,-24.128)" /><use
           id="use345"
           inkscape:spray-origin="#path42"
           xlink:href="#path42"
           transform="translate(12.56719,-25.191427)" /><use
           id="use346"
           inkscape:spray-origin="#path42"
           xlink:href="#path42"
           transform="translate(11.675832,-25.443826)" /><use
           id="use348"
           inkscape:spray-origin="#path42"
           xlink:href="#path42"
           transform="translate(12.065464,-25.380376)" /><use
           id="use349"
           inkscape:spray-origin="#path42"
           xlink:href="#path42"
           transform="translate(11.547629,-27.326945)" /><use
           id="use351"
           inkscape:spray-origin="#path42"
           xlink:href="#path42"
           transform="translate(10.729913,-27.469869)" /><use
           id="use352"
           inkscape:spray-origin="#path42"
           xlink:href="#path42"
           transform="translate(10.87297,-26.847296)" /><use
           id="use354"
           inkscape:spray-origin="#path42"
           xlink:href="#path42"
           transform="translate(11.278763,-26.630021)" /><use
           id="use355"
           inkscape:spray-origin="#path42"
           xlink:href="#path42"
           transform="translate(10.822553,-27.73204)" /><use
           id="use356"
           inkscape:spray-origin="#path42"
           xlink:href="#path42"
           transform="translate(10.750459,-28.758118)" /><use
           id="use357"
           inkscape:spray-origin="#path42"
           xlink:href="#path42"
           transform="translate(10.012395,-28.396569)" /><use
           id="use358"
           inkscape:spray-origin="#path42"
           xlink:href="#path42"
           transform="translate(10.003224,-28.214364)" /><use
           id="use359"
           inkscape:spray-origin="#path42"
           xlink:href="#path42"
           transform="translate(9.95401,-30.393146)" /><use
           id="use360"
           inkscape:spray-origin="#path42"
           xlink:href="#path42"
           transform="translate(9.7695429,-29.902242)" /><use
           id="use361"
           inkscape:spray-origin="#path42"
           xlink:href="#path42"
           transform="translate(9.337578,-30.951568)" /><use
           id="use362"
           inkscape:spray-origin="#path42"
           xlink:href="#path42"
           transform="translate(8.8562292,-30.89148)" /><use
           id="use363"
           inkscape:spray-origin="#path42"
           xlink:href="#path42"
           transform="translate(8.2326219,-31.773725)" /><use
           id="use364"
           inkscape:spray-origin="#path42"
           xlink:href="#path42"
           transform="translate(9.0473226,-31.094488)" /><use
           id="use365"
           inkscape:spray-origin="#path42"
           xlink:href="#path42"
           transform="translate(8.2037817,-32.559444)" /><use
           id="use367"
           inkscape:spray-origin="#path42"
           xlink:href="#path42"
           transform="translate(8.9093286,-33.26581)" /><use
           id="use368"
           inkscape:spray-origin="#path42"
           xlink:href="#path42"
           transform="translate(7.9597098,-32.485218)" /><use
           id="use369"
           inkscape:spray-origin="#path42"
           xlink:href="#path42"
           transform="translate(8.7080839,-32.994035)" /><use
           id="use370"
           inkscape:spray-origin="#path42"
           xlink:href="#path42"
           transform="translate(8.6896245,-32.476498)" /><use
           id="use371"
           inkscape:spray-origin="#path370"
           xlink:href="#path370"
           transform="translate(17.123588,-13.855019)" /><use
           id="use372"
           inkscape:spray-origin="#path370"
           xlink:href="#path370"
           transform="translate(17.20347,-15.016265)" /><use
           id="use373"
           inkscape:spray-origin="#path370"
           xlink:href="#path370"
           transform="translate(16.863075,-14.056192)" /><use
           id="use375"
           inkscape:spray-origin="#path370"
           xlink:href="#path370"
           transform="translate(16.029503,-15.883952)" /><use
           id="use376"
           inkscape:spray-origin="#path370"
           xlink:href="#path370"
           transform="translate(16.785826,-16.2833)" /><use
           id="use377"
           inkscape:spray-origin="#path370"
           xlink:href="#path370"
           transform="translate(16.275768,-15.396137)" /><use
           id="use379"
           inkscape:spray-origin="#path370"
           xlink:href="#path370"
           transform="translate(15.870327,-17.769029)" /><use
           id="use380"
           inkscape:spray-origin="#path370"
           xlink:href="#path370"
           transform="translate(14.897258,-17.863539)" /><use
           id="use381"
           inkscape:spray-origin="#path370"
           xlink:href="#path370"
           transform="translate(16.279507,-17.304418)" /><use
           id="use382"
           inkscape:spray-origin="#path370"
           xlink:href="#path370"
           transform="translate(14.819255,-17.973126)" /><use
           id="use383"
           inkscape:spray-origin="#path370"
           xlink:href="#path370"
           transform="translate(15.665711,-18.586714)" /><use
           id="use384"
           inkscape:spray-origin="#path370"
           xlink:href="#path370"
           transform="translate(15.41615,-19.001262)" /><use
           id="use385"
           inkscape:spray-origin="#path370"
           xlink:href="#path370"
           transform="translate(14.962518,-19.905998)" /><use
           id="use386"
           inkscape:spray-origin="#path370"
           xlink:href="#path370"
           transform="translate(13.915664,-19.634688)" /><use
           id="use387"
           inkscape:spray-origin="#path370"
           xlink:href="#path370"
           transform="translate(15.430149,-19.606773)" /><use
           id="use388"
           inkscape:spray-origin="#path370"
           xlink:href="#path370"
           transform="translate(14.465773,-21.235618)" /><use
           id="use389"
           inkscape:spray-origin="#path370"
           xlink:href="#path370"
           transform="translate(14.529593,-20.357268)" /><use
           id="use390"
           inkscape:spray-origin="#path370"
           xlink:href="#path370"
           transform="translate(14.104435,-21.739171)" /><use
           id="use391"
           inkscape:spray-origin="#path370"
           xlink:href="#path370"
           transform="translate(13.698598,-20.530376)" /><use
           id="use392"
           inkscape:spray-origin="#path370"
           xlink:href="#path370"
           transform="translate(13.437742,-21.739171)" /><use
           id="use393"
           inkscape:spray-origin="#path370"
           xlink:href="#path370"
           transform="translate(13.381999,-23.24114)" /><use
           id="use394"
           inkscape:spray-origin="#path370"
           xlink:href="#path370"
           transform="translate(13.196926,-23.880118)" /><use
           id="use395"
           inkscape:spray-origin="#path370"
           xlink:href="#path370"
           transform="translate(13.501977,-22.637732)" /><use
           id="use396"
           inkscape:spray-origin="#path370"
           xlink:href="#path370"
           transform="translate(13.390957,-23.955759)" /><use
           id="use397"
           inkscape:spray-origin="#path370"
           xlink:href="#path370"
           transform="translate(12.172908,-24.363843)" /><use
           id="use398"
           inkscape:spray-origin="#path370"
           xlink:href="#path370"
           transform="translate(12.354325,-25.30258)" /><use
           id="use399"
           inkscape:spray-origin="#path370"
           xlink:href="#path370"
           transform="translate(11.490297,-25.50962)" /><use
           id="use400"
           inkscape:spray-origin="#path370"
           xlink:href="#path370"
           transform="translate(10.865461,-26.807584)" /><use
           id="use403"
           inkscape:spray-origin="#path370"
           xlink:href="#path370"
           transform="translate(10.79311,-27.038137)" /><use
           id="use404"
           inkscape:spray-origin="#path370"
           xlink:href="#path370"
           transform="translate(10.886426,-26.846848)" /><use
           id="use405"
           inkscape:spray-origin="#path370"
           xlink:href="#path370"
           transform="translate(10.028425,-28.48381)" /><use
           id="use406"
           inkscape:spray-origin="#path370"
           xlink:href="#path370"
           transform="translate(10.70559,-28.358012)" /><use
           id="use407"
           inkscape:spray-origin="#path370"
           xlink:href="#path370"
           transform="translate(10.640735,-28.916688)" /><use
           id="use408"
           inkscape:spray-origin="#path370"
           xlink:href="#path370"
           transform="translate(9.3916909,-29.86254)" /><use
           id="use411"
           inkscape:spray-origin="#path370"
           xlink:href="#path370"
           transform="translate(9.721611,-30.954277)" /><use
           id="use412"
           inkscape:spray-origin="#path370"
           xlink:href="#path370"
           transform="translate(9.5730216,-31.717679)" /><use
           id="use413"
           inkscape:spray-origin="#path370"
           xlink:href="#path370"
           transform="translate(9.1104158,-31.253855)" /><use
           id="use418"
           inkscape:spray-origin="#path370"
           xlink:href="#path370"
           transform="translate(8.2919156,-32.295486)" /><use
           id="use420"
           inkscape:spray-origin="#path370"
           xlink:href="#path370"
           transform="translate(8.0642117,-32.532862)" /></g><g
         id="g1329"
         transform="matrix(-1,0,0,1,219.39176,0)"><path
           id="path1240"
           style="fill:url(#linearGradient1329);fill-opacity:1;stroke:none;stroke-width:0.264583px;stroke-linecap:butt;stroke-linejoin:miter;stroke-opacity:1"
           d="m 109.00528,135.67262 -9.698566,-19.52681 h 1.730566 l 8.65677,19.52681 z"
           sodipodi:nodetypes="ccccc" /><use
           id="use1240"
           inkscape:spray-origin="#path42"
           xlink:href="#path42"
           transform="translate(16.420799,-15.452989)" /><use
           id="use1241"
           inkscape:spray-origin="#path42"
           xlink:href="#path42"
           transform="translate(17.021276,-13.931203)" /><use
           id="use1242"
           inkscape:spray-origin="#path42"
           xlink:href="#path42"
           transform="translate(17.404229,-14.561921)" /><use
           id="use1243"
           inkscape:spray-origin="#path42"
           xlink:href="#path42"
           transform="translate(16.806718,-15.957026)" /><use
           id="use1244"
           inkscape:spray-origin="#path42"
           xlink:href="#path42"
           transform="translate(16.315034,-16.255325)" /><use
           id="use1245"
           inkscape:spray-origin="#path42"
           xlink:href="#path42"
           transform="translate(17.097701,-14.893662)" /><use
           id="use1246"
           inkscape:spray-origin="#path42"
           xlink:href="#path42"
           transform="translate(16.173738,-17.216703)" /><use
           id="use1247"
           inkscape:spray-origin="#path42"
           xlink:href="#path42"
           transform="translate(15.579587,-16.630502)" /><use
           id="use1248"
           inkscape:spray-origin="#path42"
           xlink:href="#path42"
           transform="translate(15.031298,-18.098241)" /><use
           id="use1249"
           inkscape:spray-origin="#path42"
           xlink:href="#path42"
           transform="translate(14.87353,-18.879136)" /><use
           id="use1250"
           inkscape:spray-origin="#path42"
           xlink:href="#path42"
           transform="translate(15.262747,-17.38764)" /><use
           id="use1251"
           inkscape:spray-origin="#path42"
           xlink:href="#path42"
           transform="translate(15.051217,-17.550702)" /><use
           id="use1252"
           inkscape:spray-origin="#path42"
           xlink:href="#path42"
           transform="translate(14.241884,-19.160145)" /><use
           id="use1253"
           inkscape:spray-origin="#path42"
           xlink:href="#path42"
           transform="translate(14.316646,-19.99053)" /><use
           id="use1254"
           inkscape:spray-origin="#path42"
           xlink:href="#path42"
           transform="translate(15.120002,-19.745116)" /><use
           id="use1255"
           inkscape:spray-origin="#path42"
           xlink:href="#path42"
           transform="translate(14.503921,-19.671258)" /><use
           id="use1256"
           inkscape:spray-origin="#path42"
           xlink:href="#path42"
           transform="translate(14.223463,-20.943317)" /><use
           id="use1257"
           inkscape:spray-origin="#path42"
           xlink:href="#path42"
           transform="translate(14.20471,-19.605853)" /><use
           id="use1258"
           inkscape:spray-origin="#path42"
           xlink:href="#path42"
           transform="translate(14.60993,-21.115735)" /><use
           id="use1259"
           inkscape:spray-origin="#path42"
           xlink:href="#path42"
           transform="translate(13.70413,-20.498846)" /><use
           id="use1260"
           inkscape:spray-origin="#path42"
           xlink:href="#path42"
           transform="translate(14.623301,-20.974257)" /><use
           id="use1261"
           inkscape:spray-origin="#path42"
           xlink:href="#path42"
           transform="translate(13.094383,-21.491819)" /><use
           id="use1262"
           inkscape:spray-origin="#path42"
           xlink:href="#path42"
           transform="translate(12.56719,-23.349645)" /><use
           id="use1263"
           inkscape:spray-origin="#path42"
           xlink:href="#path42"
           transform="translate(13.776589,-21.413596)" /><use
           id="use1264"
           inkscape:spray-origin="#path42"
           xlink:href="#path42"
           transform="translate(13.423134,-22.085799)" /><use
           id="use1265"
           inkscape:spray-origin="#path42"
           xlink:href="#path42"
           transform="translate(13.70462,-22.848498)" /><use
           id="use1266"
           inkscape:spray-origin="#path42"
           xlink:href="#path42"
           transform="translate(13.182755,-22.569945)" /><use
           id="use1267"
           inkscape:spray-origin="#path42"
           xlink:href="#path42"
           transform="translate(12.819023,-24.821863)" /><use
           id="use1268"
           inkscape:spray-origin="#path42"
           xlink:href="#path42"
           transform="translate(12.413203,-24.128)" /><use
           id="use1269"
           inkscape:spray-origin="#path42"
           xlink:href="#path42"
           transform="translate(12.56719,-25.191427)" /><use
           id="use1270"
           inkscape:spray-origin="#path42"
           xlink:href="#path42"
           transform="translate(11.675832,-25.443826)" /><use
           id="use1271"
           inkscape:spray-origin="#path42"
           xlink:href="#path42"
           transform="translate(12.065464,-25.380376)" /><use
           id="use1272"
           inkscape:spray-origin="#path42"
           xlink:href="#path42"
           transform="translate(11.547629,-27.326945)" /><use
           id="use1273"
           inkscape:spray-origin="#path42"
           xlink:href="#path42"
           transform="translate(10.729913,-27.469869)" /><use
           id="use1274"
           inkscape:spray-origin="#path42"
           xlink:href="#path42"
           transform="translate(10.87297,-26.847296)" /><use
           id="use1275"
           inkscape:spray-origin="#path42"
           xlink:href="#path42"
           transform="translate(11.278763,-26.630021)" /><use
           id="use1276"
           inkscape:spray-origin="#path42"
           xlink:href="#path42"
           transform="translate(10.822553,-27.73204)" /><use
           id="use1277"
           inkscape:spray-origin="#path42"
           xlink:href="#path42"
           transform="translate(10.750459,-28.758118)" /><use
           id="use1278"
           inkscape:spray-origin="#path42"
           xlink:href="#path42"
           transform="translate(10.012395,-28.396569)" /><use
           id="use1279"
           inkscape:spray-origin="#path42"
           xlink:href="#path42"
           transform="translate(10.003224,-28.214364)" /><use
           id="use1280"
           inkscape:spray-origin="#path42"
           xlink:href="#path42"
           transform="translate(9.95401,-30.393146)" /><use
           id="use1281"
           inkscape:spray-origin="#path42"
           xlink:href="#path42"
           transform="translate(9.7695429,-29.902242)" /><use
           id="use1282"
           inkscape:spray-origin="#path42"
           xlink:href="#path42"
           transform="translate(9.337578,-30.951568)" /><use
           id="use1283"
           inkscape:spray-origin="#path42"
           xlink:href="#path42"
           transform="translate(8.8562292,-30.89148)" /><use
           id="use1284"
           inkscape:spray-origin="#path42"
           xlink:href="#path42"
           transform="translate(8.2326219,-31.773725)" /><use
           id="use1285"
           inkscape:spray-origin="#path42"
           xlink:href="#path42"
           transform="translate(9.0473226,-31.094488)" /><use
           id="use1286"
           inkscape:spray-origin="#path42"
           xlink:href="#path42"
           transform="translate(8.2037817,-32.559444)" /><use
           id="use1287"
           inkscape:spray-origin="#path42"
           xlink:href="#path42"
           transform="translate(8.9093286,-33.26581)" /><use
           id="use1288"
           inkscape:spray-origin="#path42"
           xlink:href="#path42"
           transform="translate(7.9597098,-32.485218)" /><use
           id="use1289"
           inkscape:spray-origin="#path42"
           xlink:href="#path42"
           transform="translate(8.7080839,-32.994035)" /><use
           id="use1290"
           inkscape:spray-origin="#path42"
           xlink:href="#path42"
           transform="translate(8.6896245,-32.476498)" /><use
           id="use1291"
           inkscape:spray-origin="#path370"
           xlink:href="#path370"
           transform="translate(17.123588,-13.855019)" /><use
           id="use1292"
           inkscape:spray-origin="#path370"
           xlink:href="#path370"
           transform="translate(17.20347,-15.016265)" /><use
           id="use1293"
           inkscape:spray-origin="#path370"
           xlink:href="#path370"
           transform="translate(16.863075,-14.056192)" /><use
           id="use1294"
           inkscape:spray-origin="#path370"
           xlink:href="#path370"
           transform="translate(16.029503,-15.883952)" /><use
           id="use1295"
           inkscape:spray-origin="#path370"
           xlink:href="#path370"
           transform="translate(16.785826,-16.2833)" /><use
           id="use1296"
           inkscape:spray-origin="#path370"
           xlink:href="#path370"
           transform="translate(16.275768,-15.396137)" /><use
           id="use1297"
           inkscape:spray-origin="#path370"
           xlink:href="#path370"
           transform="translate(15.870327,-17.769029)" /><use
           id="use1298"
           inkscape:spray-origin="#path370"
           xlink:href="#path370"
           transform="translate(14.897258,-17.863539)" /><use
           id="use1299"
           inkscape:spray-origin="#path370"
           xlink:href="#path370"
           transform="translate(16.279507,-17.304418)" /><use
           id="use1300"
           inkscape:spray-origin="#path370"
           xlink:href="#path370"
           transform="translate(14.819255,-17.973126)" /><use
           id="use1301"
           inkscape:spray-origin="#path370"
           xlink:href="#path370"
           transform="translate(15.665711,-18.586714)" /><use
           id="use1302"
           inkscape:spray-origin="#path370"
           xlink:href="#path370"
           transform="translate(15.41615,-19.001262)" /><use
           id="use1303"
           inkscape:spray-origin="#path370"
           xlink:href="#path370"
           transform="translate(14.962518,-19.905998)" /><use
           id="use1304"
           inkscape:spray-origin="#path370"
           xlink:href="#path370"
           transform="translate(13.915664,-19.634688)" /><use
           id="use1305"
           inkscape:spray-origin="#path370"
           xlink:href="#path370"
           transform="translate(15.430149,-19.606773)" /><use
           id="use1306"
           inkscape:spray-origin="#path370"
           xlink:href="#path370"
           transform="translate(14.465773,-21.235618)" /><use
           id="use1307"
           inkscape:spray-origin="#path370"
           xlink:href="#path370"
           transform="translate(14.529593,-20.357268)" /><use
           id="use1308"
           inkscape:spray-origin="#path370"
           xlink:href="#path370"
           transform="translate(14.104435,-21.739171)" /><use
           id="use1309"
           inkscape:spray-origin="#path370"
           xlink:href="#path370"
           transform="translate(13.698598,-20.530376)" /><use
           id="use1310"
           inkscape:spray-origin="#path370"
           xlink:href="#path370"
           transform="translate(13.437742,-21.739171)" /><use
           id="use1311"
           inkscape:spray-origin="#path370"
           xlink:href="#path370"
           transform="translate(13.381999,-23.24114)" /><use
           id="use1312"
           inkscape:spray-origin="#path370"
           xlink:href="#path370"
           transform="translate(13.196926,-23.880118)" /><use
           id="use1313"
           inkscape:spray-origin="#path370"
           xlink:href="#path370"
           transform="translate(13.501977,-22.637732)" /><use
           id="use1314"
           inkscape:spray-origin="#path370"
           xlink:href="#path370"
           transform="translate(13.390957,-23.955759)" /><use
           id="use1315"
           inkscape:spray-origin="#path370"
           xlink:href="#path370"
           transform="translate(12.172908,-24.363843)" /><use
           id="use1316"
           inkscape:spray-origin="#path370"
           xlink:href="#path370"
           transform="translate(12.354325,-25.30258)" /><use
           id="use1317"
           inkscape:spray-origin="#path370"
           xlink:href="#path370"
           transform="translate(11.490297,-25.50962)" /><use
           id="use1318"
           inkscape:spray-origin="#path370"
           xlink:href="#path370"
           transform="translate(10.865461,-26.807584)" /><use
           id="use1319"
           inkscape:spray-origin="#path370"
           xlink:href="#path370"
           transform="translate(10.79311,-27.038137)" /><use
           id="use1320"
           inkscape:spray-origin="#path370"
           xlink:href="#path370"
           transform="translate(10.886426,-26.846848)" /><use
           id="use1321"
           inkscape:spray-origin="#path370"
           xlink:href="#path370"
           transform="translate(10.028425,-28.48381)" /><use
           id="use1322"
           inkscape:spray-origin="#path370"
           xlink:href="#path370"
           transform="translate(10.70559,-28.358012)" /><use
           id="use1323"
           inkscape:spray-origin="#path370"
           xlink:href="#path370"
           transform="translate(10.640735,-28.916688)" /><use
           id="use1324"
           inkscape:spray-origin="#path370"
           xlink:href="#path370"
           transform="translate(9.3916909,-29.86254)" /><use
           id="use1325"
           inkscape:spray-origin="#path370"
           xlink:href="#path370"
           transform="translate(9.721611,-30.954277)" /><use
           id="use1326"
           inkscape:spray-origin="#path370"
           xlink:href="#path370"
           transform="translate(9.5730216,-31.717679)" /><use
           id="use1327"
           inkscape:spray-origin="#path370"
           xlink:href="#path370"
           transform="translate(9.1104158,-31.253855)" /><use
           id="use1328"
           inkscape:spray-origin="#path370"
           xlink:href="#path370"
           transform="translate(8.2919156,-32.295486)" /><use
           id="use1329"
           inkscape:spray-origin="#path370"
           xlink:href="#path370"
           transform="translate(8.0642117,-32.532862)" /></g><path
         style="fill:#4d4d4d;fill-opacity:1;stroke:none;stroke-width:0.264583px;stroke-linecap:butt;stroke-linejoin:miter;stroke-opacity:1"
         d="m 116.13803,124.09261 h 0.93361 l 4.3987,-7.9468 h -1.38529 z"
         id="path1329"
         sodipodi:nodetypes="ccccc" /></g><g
       id="g1334"
       style="fill:none"><path
         id="path1334"
         style="opacity:0.9;fill:none;fill-opacity:1;stroke:none;stroke-width:0.2;stroke-linecap:butt;stroke-linejoin:miter;stroke-dasharray:none;stroke-opacity:1"
         d="m 153.0243,97.062023 v 5.428927 H 71.727674 v -5.428927 z m -17.91721,-0.0093 H 87.005067 c 2.86698,-3.69306 1.673578,-9.689118 3.492245,-10.739126 1.818668,-1.050008 21.521608,0.533336 23.585618,-1.530676 0.84805,-0.84805 1.03544,-3.141121 1.70074,-3.604682 0.66531,-0.463562 17.03417,-0.776416 17.81059,4e-6 0.77642,0.776419 0.28497,11.646898 4.12381,15.87448 z" /></g><path
       id="path1340"
       style="opacity:1;fill:none;fill-opacity:1;stroke:#000000;stroke-width:0.2;stroke-linecap:butt;stroke-linejoin:miter;stroke-dasharray:0.2,0.40000001;stroke-dashoffset:0;stroke-opacity:1"
       d="m 90.497312,86.313632 c 1.818668,-1.05001 21.521608,0.53334 23.585618,-1.53067 0.84805,-0.84805 1.03544,-3.14113 1.70074,-3.60469 0.66531,-0.46356 17.03417,-0.77641 17.81059,10e-6 0.77642,0.77642 0.28497,11.64689 4.12381,15.87447 l 15.30623,0.009 v 5.428928 H 71.727674 v -5.428928 l 15.277393,-0.009 c 2.86698,-3.69306 1.673578,-9.68911 3.492245,-10.73912 z"
       sodipodi:nodetypes="ssssccccccs" /><text
       xml:space="preserve"
       style="font-size:1.41111px;line-height:1.25;font-family:FreeSerif;-inkscape-font-specification:'FreeSerif, Normal';stroke-width:0.264583"
       x="74.674324"
       y="91.99884"
       id="text1340"><tspan
         sodipodi:role="line"
         id="tspan1340"
         style="stroke-width:0.264583"
         x="74.674324"
         y="91.99884">\footnotesize $\partial \Omega\big|_{t^n}$</tspan></text><path
       style="fill:none;stroke:#000000;stroke-width:0.1;stroke-linecap:butt;stroke-linejoin:miter;stroke-dasharray:none;stroke-opacity:1;marker-end:url(#DartArrow)"
       d="m 75.560054,92.370887 c 0,0 0.454703,0.308415 0.266031,2.00647 -0.210541,1.894879 0.426796,1.304888 0.555419,2.006471"
       id="path1341"
       sodipodi:nodetypes="csc" /></g></svg>
