<?xml version="1.0" encoding="UTF-8" standalone="no"?>
<svg
   inkscape:version="1.4.2 (ebf0e94, 2025-05-08)"
   sodipodi:docname="schematic.svg"
   xml:space="preserve"
   id="svg1"
   version="1.1"
   viewBox="0 0 218.72888 94"
   height="94mm"
   width="218.729mm"
   xmlns:inkscape="http://www.inkscape.org/namespaces/inkscape"
   xmlns:sodipodi="http://sodipodi.sourceforge.net/DTD/sodipodi-0.dtd"
   xmlns="http://www.w3.org/2000/svg"
   xmlns:svg="http://www.w3.org/2000/svg"
   xmlns:rdf="http://www.w3.org/1999/02/22-rdf-syntax-ns#"
   xmlns:cc="http://creativecommons.org/ns#"
   xmlns:dc="http://purl.org/dc/elements/1.1/"><metadata
     id="metadata1013"><rdf:RDF><cc:Work
         rdf:about=""><dc:format>image/svg+xml</dc:format><dc:type
           rdf:resource="http://purl.org/dc/dcmitype/StillImage" /></cc:Work></rdf:RDF></metadata><sodipodi:namedview
     inkscape:document-rotation="0"
     showgrid="false"
     inkscape:current-layer="layer1"
     inkscape:window-maximized="1"
     inkscape:window-y="0"
     inkscape:window-x="0"
     inkscape:window-height="1016"
     inkscape:window-width="1920"
     inkscape:cy="287.99999"
     inkscape:cx="480.99999"
     inkscape:zoom="1"
     inkscape:document-units="mm"
     inkscape:deskcolor="#d1d1d1"
     inkscape:pagecheckerboard="0"
     inkscape:pageopacity="0.0"
     inkscape:showpageshadow="2"
     borderopacity="1.0"
     bordercolor="#666666"
     pagecolor="#ffffff"
     id="namedview1" /><defs
     id="defs1"><marker
       style="overflow:visible"
       id="DartArrow"
       refX="0"
       refY="0"
       orient="auto-start-reverse"
       inkscape:stockid="Dart arrow"
       markerWidth="0.5"
       markerHeight="0.5"
       viewBox="0 0 1 1"
       inkscape:isstock="true"
       inkscape:collect="always"
       preserveAspectRatio="xMidYMid"
       markerUnits="userSpaceOnUse"><path
         style="fill:context-stroke;fill-rule:evenodd;stroke:none"
         d="M 0,0 5,-5 -12.5,0 5,5 Z"
         transform="scale(-0.5)"
         id="path6" /></marker><marker
       preserveAspectRatio="xMidYMid"
       inkscape:isstock="true"
       viewBox="0 0 1 1"
       markerHeight="1"
       markerWidth="1"
       inkscape:stockid="Wide, heavy arrow"
       orient="auto-start-reverse"
       refY="0"
       refX="0"
       id="marker1329"
       style="overflow:visible"><path
         id="path1327"
         d="m 1,0 -3,3 h -2 l 3,-3 -3,-3 h 2 z"
         style="fill:context-stroke;fill-rule:evenodd;stroke:#000000;stroke-opacity:1" /></marker><marker
       style="overflow:visible"
       id="marker1177"
       refX="0"
       refY="0"
       orient="auto-start-reverse"
       inkscape:stockid="Wide arrow"
       markerWidth="1"
       markerHeight="1"
       viewBox="0 0 1 1"
       inkscape:isstock="true"
       preserveAspectRatio="xMidYMid"><path
         style="fill:none;stroke:#000000;stroke-width:1;stroke-linecap:butt;stroke-opacity:1"
         d="M 3,-3 0,0 3,3"
         transform="rotate(180,0.125,0)"
         sodipodi:nodetypes="ccc"
         id="path1175" /></marker><marker
       style="overflow:visible"
       id="marker1167"
       refX="0"
       refY="0"
       orient="auto-start-reverse"
       inkscape:stockid="Wide arrow"
       markerWidth="1"
       markerHeight="1"
       viewBox="0 0 1 1"
       inkscape:isstock="true"
       preserveAspectRatio="xMidYMid"><path
         style="fill:#800080;fill-opacity:0.6;stroke:none;stroke-width:1;stroke-linecap:butt;stroke-opacity:1"
         d="M 3,-3 0,0 3,3"
         transform="rotate(180,0.125,0)"
         sodipodi:nodetypes="ccc"
         id="path1165" /></marker><marker
       style="overflow:visible"
       id="marker1093"
       refX="0"
       refY="0"
       orient="auto-start-reverse"
       inkscape:stockid="Dart arrow"
       markerWidth="0.34999999"
       markerHeight="0.34999999"
       viewBox="0 0 1 1"
       inkscape:isstock="true"
       preserveAspectRatio="xMidYMid"
       markerUnits="userSpaceOnUse"><path
         style="fill:context-stroke;fill-rule:evenodd;stroke:#000000;stroke-opacity:1"
         d="M 0,0 5,-5 -12.5,0 5,5 Z"
         transform="scale(-0.5)"
         id="path1091" /></marker><marker
       style="overflow:visible"
       id="marker1041"
       refX="0"
       refY="0"
       orient="auto-start-reverse"
       inkscape:stockid="Dart arrow"
       markerWidth="0.34999999"
       markerHeight="0.34999999"
       viewBox="0 0 1 1"
       inkscape:isstock="true"
       preserveAspectRatio="xMidYMid"
       markerUnits="userSpaceOnUse"><path
         style="fill:context-stroke;fill-rule:evenodd;stroke:#000000;stroke-opacity:1"
         d="M 0,0 5,-5 -12.5,0 5,5 Z"
         transform="scale(-0.5)"
         id="path1039" /></marker></defs><g
     id="layer1"
     inkscape:groupmode="layer"
     inkscape:label="Layer 1"><path
       d="m -7.9375,-14.048032 v 8.6914592 L 21.209041,4.937889 c 1.810742,-0.824755 4.276441,-1.1640367 7.162354,-1.1518674 12.505621,0.052734 32.898304,6.7107854 42.045495,9.1214074 27.35317,7.20857 94.60655,29.859151 108.10865,35.184932 6.83963,2.697831 17.25981,8.045255 9.3555,15.715837 L 288.52606,99.35693 V 13.490339 L 145.38182,-14.048032 Z"
       style="display:inline;opacity:1;fill:#003366;fill-opacity:0.4;stroke-width:0.0529167"
       id="path4" /><path
       d="M 288.52606,99.35693 187.88104,63.808198 c -6.68234,3.677004 -12.7186,4.149017 -23.1743,3.384806 C 146.02187,65.827321 86.113701,43.748121 55.137203,32.358955 39.7542,26.703068 23.021277,15.733954 21.209041,4.938406 L -7.9375,-5.3565728 V 95.42591 l 115.17281,40.7603 181.29075,0.0879 z"
       style="display:inline;opacity:1;fill:#003366;fill-opacity:0.691879;stroke-width:0.0529167"
       id="path3" /><path
       d="m 28.371393,3.786025 c -2.88591,-0.0122 -5.3516,0.32711 -7.16235,1.15187 1.81163,10.79577 18.54482,21.76505 33.92816,27.42106 30.97649,11.38917 90.884667,33.46837 109.569537,34.83405 10.4557,0.76421 16.49196,0.29221 23.1743,-3.3848 7.9045,-7.67063 -2.51584,-13.018 -9.3555,-15.71584 -13.5021,-5.32578 -80.75548,-27.97636 -108.108647,-35.18493 -9.14719,-2.41063 -29.53988,-9.06871 -42.0455,-9.12141 z m 44.58385,19.42931 c 20.252347,24.46184 83.615007,39.93233 91.729277,41.3122 6.43514,1.09432 16.22337,1.55496 19.24017,-2.11666 5.6224,-5.58932 -1.74295,-10.62812 -7.60987,-13.12789 -14.0431,-5.98348 -85.169477,-25.90228 -103.359577,-26.06765 z"
       style="fill:#0000ff;fill-opacity:0.5;fill-rule:evenodd;stroke:#000000;stroke-width:0.0529167"
       id="path76" /><g
       transform="translate(-7.9375,-27.848955)"
       style="display:inline;fill:#ffff00;fill-opacity:0.4"
       id="g28"><path
         sodipodi:nodetypes="czc"
         d="m 163.36015,80.192434 c 6.3844,-1.262848 10.57131,0.07892 13.05315,1.161799 2.48184,1.08288 4.14277,2.598171 2.19641,4.224478"
         style="fill:#ffff00;fill-opacity:0.4;stroke:#000000;stroke-width:0.0529167;stroke-linecap:butt;stroke-linejoin:miter;stroke-dasharray:none;stroke-opacity:1"
         id="path8" /><path
         sodipodi:nodetypes="csc"
         d="m 163.36015,80.192432 c 1.06292,2.013133 6.36839,5.137832 9.20781,5.799365 2.06774,0.481746 4.46057,0.467745 6.04175,-0.413086"
         style="fill:#ffff00;fill-opacity:0.4;stroke:#000000;stroke-width:0.0529167;stroke-linecap:butt;stroke-linejoin:miter;stroke-dasharray:none;stroke-opacity:1"
         id="path22" /></g><g
       transform="translate(-7.9375,-27.848955)"
       style="display:inline"
       id="g29"><path
         sodipodi:nodetypes="czc"
         d="m 146.95447,74.397811 c 14.68646,-0.374177 24.65491,1.809903 32.8593,5.12481 8.20439,3.314907 5.96746,6.136351 4.03269,7.905752"
         style="fill:none;stroke:#000000;stroke-width:0.0529167;stroke-linecap:butt;stroke-linejoin:miter;stroke-dasharray:none;stroke-opacity:1"
         id="path11" /><path
         sodipodi:nodetypes="csc"
         d="m 146.95447,74.397811 c 5.42557,6.138847 15.70792,12.332382 25.6368,14.353939 3.56843,0.726546 9.21016,0.712589 11.25519,-1.323377"
         style="fill:none;stroke:#000000;stroke-width:0.0529167;stroke-linecap:butt;stroke-linejoin:miter;stroke-dasharray:none;stroke-opacity:1"
         id="path23" /></g><g
       transform="translate(-7.9375,-27.848955)"
       style="display:inline"
       id="g30"><path
         sodipodi:nodetypes="csc"
         d="m 188.50316,89.073163 c 4.89479,-4.332552 0.20358,-8.504237 -6.46938,-10.746319 -17.2325,-5.79003 -49.19668,-15.02535 -67.15719,-15.259211"
         style="fill:none;stroke:#000000;stroke-width:0.0529167;stroke-linecap:butt;stroke-linejoin:miter;stroke-dasharray:none;stroke-opacity:1"
         id="path12" /><path
         sodipodi:nodetypes="csc"
         d="m 114.87659,63.067633 c 10.44189,11.412409 46.52452,25.011918 57.73709,27.399849 5.8382,1.243356 10.50573,1.570381 15.88948,-1.394321"
         style="fill:none;stroke:#000000;stroke-width:0.0529167;stroke-linecap:butt;stroke-linejoin:miter;stroke-dasharray:none;stroke-opacity:1"
         id="path24" /></g><g
       transform="translate(-7.9375,-27.848955)"
       style="display:inline"
       id="g31"><path
         sodipodi:nodetypes="csc"
         d="m 80.892551,51.064178 c 18.190104,0.165365 89.316689,20.084191 103.359789,26.067668 5.86692,2.499773 13.23248,7.538508 7.61008,13.127831"
         style="fill:none;stroke:#000000;stroke-width:0.0529167;stroke-linecap:butt;stroke-linejoin:miter;stroke-dasharray:none;stroke-opacity:1"
         id="path15" /><path
         sodipodi:nodetypes="csc"
         d="m 80.892551,51.064178 c 20.252349,24.461843 83.615059,39.932286 91.729329,41.312155 6.43514,1.094325 16.22374,1.554959 19.24054,-2.116656"
         style="fill:none;stroke:#000000;stroke-width:0.0529167;stroke-linecap:butt;stroke-linejoin:miter;stroke-dasharray:none;stroke-opacity:1"
         id="path25" /></g><g
       transform="translate(0,-22.701155)"
       style="display:inline;fill:#ffff00;fill-opacity:0.4"
       id="g54" /><g
       transform="translate(110.80047,-87.06105)"
       style="display:inline"
       id="g56" /><path
       d="m 159.80636,51.839632 c -1.32911,0.03488 -2.78761,0.188133 -4.38371,0.503845 1.06292,2.013133 6.36829,5.137596 9.20771,5.799129 2.06774,0.481746 4.46031,0.467937 6.04149,-0.412894 1.94636,-1.626307 0.28559,-3.141669 -2.19625,-4.224549 -1.86138,-0.812159 -4.68192,-1.770163 -8.66924,-1.665531 z m -20.78943,-5.29115 c 5.42557,6.138847 15.7078,12.332606 25.63668,14.354163 3.56843,0.726546 9.2101,0.712532 11.25513,-1.323434 1.93477,-1.769401 4.17156,-4.59107 -4.03283,-7.905977 -8.20439,-3.314907 -18.17252,-5.498929 -32.85898,-5.124752 z"
       style="fill:#ff8000;fill-opacity:0.9;fill-rule:evenodd;stroke:#000000;stroke-width:0.0529167"
       id="path62" /><g
       transform="translate(139.94232,-89.215501)"
       style="display:inline"
       id="g64" /><path
       d="m 139.01693,46.548482 c 5.42557,6.138847 15.7078,12.332606 25.63668,14.354163 3.56843,0.726546 9.2101,0.712532 11.25513,-1.323434 1.93477,-1.769401 4.17156,-4.59107 -4.03283,-7.905977 -8.20439,-3.314907 -18.17252,-5.498929 -32.85898,-5.124752 z M 106.93909,35.218678 c 10.44189,11.412409 46.52452,25.011918 57.73709,27.399849 5.8382,1.243356 10.50573,1.570381 15.88948,-1.394321 m 0,2e-6 c 4.89479,-4.332552 0.20358,-8.504237 -6.46938,-10.746319 -17.2325,-5.79003 -49.19668,-15.02535 -67.15719,-15.259211"
       style="fill:#ff0000;fill-opacity:0.8;fill-rule:evenodd;stroke:#000000;stroke-width:0.0529167"
       id="path66" /><g
       transform="translate(164.63803,-102.11489)"
       style="display:inline"
       id="g68" /><path
       d="m 106.93909,35.218678 c 10.44189,11.412409 46.52448,25.011947 57.73705,27.399878 5.8382,1.243356 10.50572,1.570472 15.88947,-1.39423 4.89479,-4.332552 0.20358,-8.504549 -6.46938,-10.746631 -17.2325,-5.79003 -49.19663,-15.025156 -67.15714,-15.259017 z M 72.95495,23.215195 c 20.25235,24.461843 83.61506,39.932286 91.72933,41.312155 6.43514,1.094325 16.22374,1.554959 19.24054,-2.116656 M 72.95495,23.215195 c 18.1901,0.165365 89.31669,20.084191 103.35979,26.067668 5.86692,2.499773 13.23248,7.538508 7.61008,13.127831"
       style="fill:#800080;fill-opacity:0.6;fill-rule:evenodd;stroke:#000000;stroke-width:0.0529167"
       id="path71" /><path
       id="path27"
       d="M -7.9375,-5.35671 288.52598,99.35671"
       style="display:inline;fill:none;stroke:#000000;stroke-width:0.0529167;stroke-linecap:butt;stroke-linejoin:miter;stroke-dasharray:none;stroke-opacity:1" /><path
       d="m 100.77916,33.042938 v 13.617117 l 89.6319,31.7212 m 11.72167,-19.976439 -89.65078,-31.665425 -11.70279,6.303547 m 89.6319,31.658747 v 13.67957 m 0,-13.67957 11.75877,-6.316802"
       style="fill:none;stroke:#000000;stroke-width:0.5;stroke-linecap:butt;stroke-linejoin:miter;stroke-opacity:1;stroke-dasharray:none"
       id="path46" /><rect
       style="opacity:0.7;fill:#ffffff;fill-opacity:1;fill-rule:evenodd;stroke:#000000;stroke-width:0.448294;stroke-opacity:1"
       id="rect1"
       width="47.515331"
       height="9.2195196"
       x="145.05923"
       y="6.141191"
       ry="1.0783981" /><text
       xml:space="preserve"
       style="font-size:1.41111px;line-height:1.25;font-family:FreeSerif;-inkscape-font-specification:'FreeSerif, Normal';stroke-width:0.264583"
       x="146.4138"
       y="12.270052"
       id="text1"><tspan
         sodipodi:role="line"
         id="tspan1"
         style="stroke-width:0.264583"
         x="146.4138"
         y="12.270052">$\Omega_s,\; \Delta t_s \gg \Delta t_f$</tspan></text><rect
       style="opacity:0.7;fill:#ffffff;fill-opacity:1;fill-rule:evenodd;stroke:#000000;stroke-width:0.33698;stroke-opacity:1"
       id="rect2"
       width="26.724392"
       height="9.2622557"
       x="105.74724"
       y="38.398987"
       ry="1.0833969" /><text
       xml:space="preserve"
       style="font-size:1.41111px;line-height:1.25;font-family:FreeSerif;-inkscape-font-specification:'FreeSerif, Normal';stroke-width:0.264583"
       x="107.12318"
       y="44.549221"
       id="text2"><tspan
         sodipodi:role="line"
         id="tspan2"
         style="stroke-width:0.264583"
         x="107.12318"
         y="44.549221">$\Omega_f,\; \Delta t_f$</tspan></text><rect
       style="opacity:0.7;fill:#ffffff;fill-opacity:1;fill-rule:evenodd;stroke:#000000;stroke-width:0.36319;stroke-opacity:1"
       id="rect3"
       width="31.131327"
       height="9.2360458"
       x="100.82846"
       y="69.088326"
       ry="1.0803312" /><text
       xml:space="preserve"
       style="font-size:1.41111px;line-height:1.25;font-family:FreeSerif;-inkscape-font-specification:'FreeSerif, Normal';stroke-width:0.264583"
       x="102.1913"
       y="75.225449"
       id="text3"><tspan
         sodipodi:role="line"
         id="tspan3"
         style="stroke-width:0.264583"
         x="102.1913"
         y="75.225449">$\Gamma_{fs} = \Gamma_{sf}$</tspan></text><path
       style="fill:none;stroke:#000000;stroke-width:0.2;stroke-linecap:butt;stroke-linejoin:miter;stroke-dasharray:none;stroke-opacity:1;marker-end:url(#DartArrow)"
       d="m 131.95979,73.706349 c 10.22819,1.643034 19.25947,-0.03272 24.97945,-4.42484"
       id="path5"
       sodipodi:nodetypes="cc" /></g></svg>
